<?xml version="1.0" encoding="UTF-8" standalone="no"?>
<!-- Created with Inkscape (http://www.inkscape.org/) -->

<svg
   xmlns:dc="http://purl.org/dc/elements/1.1/"
   xmlns:cc="http://creativecommons.org/ns#"
   xmlns:rdf="http://www.w3.org/1999/02/22-rdf-syntax-ns#"
   xmlns:svg="http://www.w3.org/2000/svg"
   xmlns="http://www.w3.org/2000/svg"
   xmlns:sodipodi="http://sodipodi.sourceforge.net/DTD/sodipodi-0.dtd"
   xmlns:inkscape="http://www.inkscape.org/namespaces/inkscape"
   width="11in"
   height="8.5in"
   viewBox="0 0 279.4 215.9"
   version="1.1"
   id="svg8"
   inkscape:version="0.92.4 (5da689c313, 2019-01-14)"
   sodipodi:docname="favicon.svg"
   inkscape:export-filename="C:\Users\migue\OneDrive\Documentos\proyectos\2024_Servicios_bioinfomraticos\hero\hero\static\faviconlog.png"
   inkscape:export-xdpi="12.300238"
   inkscape:export-ydpi="12.300238">
  <defs
     id="defs2" />
  <sodipodi:namedview
     id="base"
     pagecolor="#ffffff"
     bordercolor="#666666"
     borderopacity="1.0"
     inkscape:pageopacity="0.0"
     inkscape:pageshadow="2"
     inkscape:zoom="1.4"
     inkscape:cx="514.34072"
     inkscape:cy="491.16838"
     inkscape:document-units="mm"
     inkscape:current-layer="layer1"
     showgrid="false"
     inkscape:window-width="1920"
     inkscape:window-height="1001"
     inkscape:window-x="-9"
     inkscape:window-y="-9"
     inkscape:window-maximized="1"
     units="in" />
  <metadata
     id="metadata5">
    <rdf:RDF>
      <cc:Work
         rdf:about="">
        <dc:format>image/svg+xml</dc:format>
        <dc:type
           rdf:resource="http://purl.org/dc/dcmitype/StillImage" />
        <dc:title></dc:title>
      </cc:Work>
    </rdf:RDF>
  </metadata>
  <g
     inkscape:label="Layer 1"
     inkscape:groupmode="layer"
     id="layer1"
     transform="translate(0,-81.1)">
    <text
       xml:space="preserve"
       style="font-style:normal;font-variant:normal;font-weight:normal;font-stretch:normal;font-size:4.23333311px;line-height:0;font-family:Arial;-inkscape-font-specification:'Arial, Normal';font-variant-ligatures:normal;font-variant-caps:normal;font-variant-numeric:normal;font-feature-settings:normal;text-align:justify;letter-spacing:0px;word-spacing:0px;writing-mode:lr-tb;text-anchor:start;fill:#4d4d4d;fill-opacity:1;stroke:none;stroke-width:0.26458332;"
       x="110.38232"
       y="172.18513"
       id="text863"
       inkscape:export-xdpi="12.300238"
       inkscape:export-ydpi="12.300238"><tspan
         sodipodi:role="line"
         id="tspan861"
         x="110.38232"
         y="172.18513"
         style="font-style:normal;font-variant:normal;font-weight:bold;font-stretch:normal;font-size:19.75555611px;font-family:'Californian FB';-inkscape-font-specification:'Californian FB, Bold';font-variant-ligatures:normal;font-variant-caps:normal;font-variant-numeric:normal;font-feature-settings:normal;text-align:justify;writing-mode:lr-tb;text-anchor:start;stroke-width:0.26458332;fill:#4d4d4d;"><tspan
           style="font-style:normal;font-variant:normal;font-weight:bold;font-stretch:normal;font-size:19.75555611px;font-family:'Californian FB';-inkscape-font-specification:'Californian FB, Bold';font-variant-ligatures:normal;font-variant-caps:normal;font-variant-numeric:normal;font-feature-settings:normal;text-align:justify;writing-mode:lr-tb;text-anchor:start;fill:#4d4d4d;"
           id="tspan840">T</tspan></tspan></text>
    <path
       inkscape:transform-center-y="-4.1426774"
       inkscape:transform-center-x="13.229842"
       inkscape:tile-y0="-61.925932"
       inkscape:tile-x0="-141.3456"
       style="fill:#216778;stroke-width:0"
       d="m -670.26646,-343.93076 c 0.11953,0.0868 -0.44394,-0.32254 -0.52751,-0.38326 -0.0265,-0.0192 -0.17348,-0.12604 -0.3268,-0.23744 -0.65562,-0.47633 -1.04885,-0.76203 -0.47342,-0.34395 0.50532,0.36713 0.68644,0.49872 0.0346,0.0251 -0.38812,-0.28199 -0.8365,-0.60775 -1.22411,-0.88937 -0.59192,-0.43005 -1.01171,-0.73504 -0.81053,-0.58888 0.44159,0.32083 1.40669,1.02202 2.27666,1.65409 -0.005,-0.003 0.68305,0.49627 0.84056,0.6107 0.0799,0.0581 0.17462,0.12687 0.21052,0.15296 z"
       id="use1663"
       inkscape:connector-curvature="0"
       sodipodi:nodetypes="cccccscccc" />
    <path
       inkscape:transform-center-y="-4.1426774"
       inkscape:transform-center-x="13.229842"
       inkscape:tile-y0="-61.925932"
       inkscape:tile-x0="-141.3456"
       style="fill:#216778;stroke-width:0"
       d="m -537.79382,-504.01951 c 0.069,0.0949 -0.25612,-0.35253 -0.30434,-0.41889 -0.0153,-0.021 -0.10009,-0.13776 -0.18855,-0.25951 -0.37825,-0.52062 -0.60512,-0.83289 -0.27313,-0.37594 0.29154,0.40127 0.39603,0.54509 0.02,0.0275 -0.22393,-0.3082 -0.48261,-0.66425 -0.70624,-0.97205 -0.3415,-0.47004 -0.5837,-0.80339 -0.46763,-0.64364 0.25477,0.35066 0.81158,1.11704 1.3135,1.80788 -0.003,-0.004 0.39408,0.54241 0.48495,0.66748 0.0461,0.0635 0.10075,0.13867 0.12146,0.16718 z"
       id="use1665"
       inkscape:connector-curvature="0"
       sodipodi:nodetypes="cccccscccc" />
    <path
       inkscape:transform-center-y="-4.1426774"
       inkscape:transform-center-x="13.229842"
       inkscape:tile-y0="-61.925932"
       inkscape:tile-x0="-141.3456"
       style="fill:#216778;stroke-width:0"
       d="m -350.6362,-617.3583 c 0.0207,0.0639 -0.0771,-0.23723 -0.0916,-0.28189 -0.005,-0.0141 -0.0301,-0.0927 -0.0567,-0.17464 -0.11383,-0.35035 -0.18211,-0.56048 -0.0822,-0.25298 0.0877,0.27003 0.11919,0.36681 0.006,0.0185 -0.0674,-0.2074 -0.14524,-0.44701 -0.21254,-0.65414 -0.10278,-0.31631 -0.17566,-0.54064 -0.14073,-0.43313 0.0767,0.23598 0.24424,0.75171 0.39529,1.2166 -8.2e-4,-0.003 0.1186,0.36501 0.14595,0.44918 0.0139,0.0427 0.0303,0.0933 0.0365,0.1125 z"
       id="use1667"
       inkscape:connector-curvature="0"
       sodipodi:nodetypes="cccccscccc" />
    <path
       inkscape:transform-center-y="-4.1426774"
       inkscape:transform-center-x="13.229842"
       inkscape:tile-y0="-61.925932"
       inkscape:tile-x0="-141.3456"
       style="fill:#216778;stroke-width:0"
       d="m -125.97213,-666.80381 c 0,0 0,0 0,0 0,0 0,0 0,0 0,0 0,0 0,0 0,0 0,0 0,0 0,0 0,0 0,0 0,0 0,0 0,0 0,0 0,0 0,0 0,0 0,0 0,0 0,0 0,0 0,0 z"
       id="use1669"
       inkscape:connector-curvature="0"
       sodipodi:nodetypes="cccccscccc" />
    <path
       inkscape:transform-center-y="-4.1426774"
       inkscape:transform-center-x="13.229842"
       inkscape:tile-y0="-61.925932"
       inkscape:tile-x0="-141.3456"
       style="fill:#216778;stroke-width:0"
       d="m 113.96687,-641.80536 c 0.0244,-0.075 -0.0905,0.27841 -0.10749,0.33082 -0.005,0.0166 -0.0354,0.10881 -0.0666,0.20496 -0.1336,0.41117 -0.21373,0.65779 -0.0965,0.29691 0.10297,-0.31692 0.13988,-0.4305 0.007,-0.0217 -0.0791,0.24342 -0.17045,0.52461 -0.24944,0.76771 -0.12062,0.37122 -0.20616,0.6345 -0.16517,0.50833 0.09,-0.27695 0.28665,-0.88222 0.46393,-1.42782 -9.7e-4,0.003 0.13919,-0.42838 0.17129,-0.52716 0.0163,-0.0501 0.0356,-0.10952 0.0429,-0.13203 z"
       id="use1671"
       inkscape:connector-curvature="0"
       sodipodi:nodetypes="cccccscccc" />
    <path
       inkscape:transform-center-y="-4.1426774"
       inkscape:transform-center-x="13.229842"
       inkscape:tile-y0="-61.925932"
       inkscape:tile-x0="-141.3456"
       style="fill:#216778;stroke-width:0"
       d="m 344.51941,-539.64283 c 0.095,-0.13081 -0.35296,0.48581 -0.4194,0.57726 -0.021,0.0289 -0.13793,0.18984 -0.25983,0.35763 -0.52126,0.71745 -0.83391,1.14777 -0.3764,0.51806 0.40176,-0.55298 0.54576,-0.75117 0.0275,-0.0379 -0.30858,0.42473 -0.66507,0.91539 -0.97325,1.33957 -0.47061,0.64774 -0.80437,1.10712 -0.64443,0.88698 0.3511,-0.48325 1.11842,-1.53937 1.81011,-2.4914 -0.004,0.005 0.54307,-0.74747 0.6683,-0.91983 0.0635,-0.0874 0.13884,-0.1911 0.16738,-0.23038 z"
       id="use1673"
       inkscape:connector-curvature="0"
       sodipodi:nodetypes="cccccscccc" />
    <path
       inkscape:transform-center-y="-4.1426774"
       inkscape:transform-center-x="13.229842"
       inkscape:tile-y0="-61.925932"
       inkscape:tile-x0="-141.3456"
       style="fill:#216778;stroke-width:0"
       d="m 541.32212,-365.60225 c 0.19362,-0.14067 -0.7191,0.52246 -0.85447,0.62081 -0.0429,0.0311 -0.28102,0.20418 -0.52937,0.38462 -1.06199,0.77157 -1.69897,1.23437 -0.76686,0.55715 0.81854,-0.5947 1.11191,-0.80785 0.0561,-0.0407 -0.62869,0.45677 -1.35498,0.98445 -1.98285,1.44063 -0.95881,0.69661 -1.6388,1.19065 -1.31294,0.9539 0.71531,-0.5197 2.27862,-1.65551 3.68783,-2.67936 -0.008,0.006 1.10643,-0.80387 1.36156,-0.98924 0.12944,-0.094 0.28287,-0.20551 0.34102,-0.24776 z"
       id="use1675"
       inkscape:connector-curvature="0"
       sodipodi:nodetypes="cccccscccc" />
    <path
       inkscape:transform-center-y="-4.1426774"
       inkscape:transform-center-x="13.229842"
       inkscape:tile-y0="-61.925932"
       inkscape:tile-x0="-141.3456"
       style="fill:#216778;stroke-width:0"
       d="m 682.72108,-132.2628 c 0.28703,-0.0933 -1.06603,0.34638 -1.2667,0.41158 -0.0635,0.0206 -0.4166,0.13536 -0.78477,0.25499 -1.57433,0.51153 -2.51861,0.81834 -1.13682,0.36937 1.21344,-0.39427 1.64835,-0.53558 0.0831,-0.027 -0.932,0.30282 -2.00868,0.65266 -2.93947,0.95509 -1.42137,0.46183 -2.42942,0.78937 -1.94634,0.6324 1.0604,-0.34454 3.37791,-1.09754 5.46698,-1.77632 -0.0114,0.004 1.64022,-0.53294 2.01843,-0.65583 0.19189,-0.0623 0.41934,-0.13625 0.50554,-0.16426 z"
       id="use1677"
       inkscape:connector-curvature="0"
       sodipodi:nodetypes="cccccscccc" />
    <path
       inkscape:transform-center-y="-4.1426774"
       inkscape:transform-center-x="13.229842"
       inkscape:tile-y0="-61.925932"
       inkscape:tile-x0="-141.3456"
       style="fill:#216778;stroke-width:0"
       d="m 751.64398,141.77977 c 0.33959,0 -1.26126,0 -1.49868,0 -0.0752,0 -0.49288,0 -0.92849,0 -1.86264,0 -2.97985,0 -1.345,0 1.43566,0 1.95021,0 0.0983,0 -1.10267,0 -2.37654,0 -3.47778,0 -1.68167,0 -2.87433,0 -2.30278,0 1.2546,0 3.99652,0 6.46816,0 -0.0135,0 1.94061,0 2.38809,0 0.22702,0 0.49612,0 0.59811,0 z"
       id="use1679"
       inkscape:connector-curvature="0"
       sodipodi:nodetypes="cccccscccc" />
    <path
       inkscape:transform-center-y="-4.1426774"
       inkscape:transform-center-x="13.229842"
       inkscape:tile-y0="-61.925932"
       inkscape:tile-x0="-141.3456"
       style="fill:#216778;stroke-width:0"
       d="m 736.93592,433.43778 c 0.32798,0.10657 -1.21814,-0.3958 -1.44745,-0.4703 -0.0726,-0.0236 -0.47603,-0.15468 -0.89674,-0.29137 -1.79896,-0.58452 -2.87799,-0.93512 -1.29902,-0.42208 1.38657,0.45053 1.88354,0.612 0.095,0.0308 -1.06498,-0.34603 -2.2953,-0.74578 -3.35889,-1.09136 -1.62418,-0.52773 -2.77607,-0.902 -2.22406,-0.72265 1.21171,0.39371 3.85989,1.25416 6.24704,2.02979 -0.013,-0.004 1.87426,0.60899 2.30645,0.74941 0.21926,0.0712 0.47916,0.15569 0.57767,0.1877 z"
       id="use1681"
       inkscape:connector-curvature="0"
       sodipodi:nodetypes="cccccscccc" />
    <path
       inkscape:transform-center-y="-4.1426774"
       inkscape:transform-center-x="13.229842"
       inkscape:tile-y0="-61.925932"
       inkscape:tile-x0="-141.3456"
       style="fill:#216778;stroke-width:0"
       d="m 634.32358,716.73131 c 0.25289,0.18373 -0.93924,-0.6824 -1.11604,-0.81086 -0.056,-0.0407 -0.36705,-0.26667 -0.69143,-0.50235 -1.38708,-1.00777 -2.21905,-1.61224 -1.00161,-0.72771 1.06912,0.77676 1.4523,1.05515 0.0732,0.0532 -0.82115,-0.5966 -1.76978,-1.28582 -2.58986,-1.88164 -1.25231,-0.90986 -2.14047,-1.55514 -1.71485,-1.24591 0.93429,0.6788 2.97615,2.1623 4.81675,3.49957 -0.01,-0.007 1.44514,1.04996 1.77837,1.29206 0.16906,0.12283 0.36946,0.26843 0.44541,0.32361 z"
       id="use1683"
       inkscape:connector-curvature="0"
       sodipodi:nodetypes="cccccscccc" />
    <path
       inkscape:transform-center-y="-4.1426774"
       inkscape:transform-center-x="13.229842"
       inkscape:tile-y0="-61.925932"
       inkscape:tile-x0="-141.3456"
       style="fill:#216778;stroke-width:0"
       d="m 447.17357,964.49369 c 0.14196,0.1954 -0.52726,-0.72571 -0.62652,-0.86232 -0.0314,-0.0432 -0.20604,-0.2836 -0.38814,-0.53424 -0.77867,-1.07174 -1.24572,-1.71458 -0.56228,-0.7739 0.60017,0.82606 0.81528,1.12213 0.0411,0.0566 -0.46097,-0.63447 -0.9935,-1.36743 -1.45387,-2.00107 -0.70301,-0.96762 -1.2016,-1.65386 -0.96267,-1.325 0.52448,0.72188 1.67073,2.29955 2.70398,3.72171 -0.006,-0.008 0.81126,1.1166 0.99833,1.37408 0.0949,0.13062 0.2074,0.28546 0.25004,0.34415 z"
       id="use1685"
       inkscape:connector-curvature="0"
       sodipodi:nodetypes="cccccscccc" />
    <path
       inkscape:transform-center-y="-4.1426774"
       inkscape:transform-center-x="13.229842"
       inkscape:tile-y0="-61.925932"
       inkscape:tile-x0="-141.3456"
       style="fill:#216778;stroke-width:0"
       d="m 187.07303,1150.3625 c 0.0417,0.1282 -0.1547,-0.4761 -0.18382,-0.5657 -0.009,-0.028 -0.0605,-0.1861 -0.11388,-0.3505 -0.22846,-0.7031 -0.36549,-1.1249 -0.16497,-0.5077 0.17609,0.5419 0.2392,0.7362 0.0121,0.037 -0.13525,-0.4163 -0.29149,-0.8971 -0.42656,-1.3128 -0.20627,-0.6348 -0.35255,-1.0851 -0.28245,-0.8693 0.15388,0.4736 0.49019,1.5086 0.79335,2.4417 -0.002,-0.01 0.23802,0.7325 0.2929,0.9014 0.0279,0.086 0.0608,0.1873 0.0734,0.2258 z"
       id="use1687"
       inkscape:connector-curvature="0"
       sodipodi:nodetypes="cccccscccc" />
    <path
       inkscape:transform-center-y="-4.1426774"
       inkscape:transform-center-x="13.229842"
       inkscape:tile-y0="-61.925932"
       inkscape:tile-x0="-141.3456"
       style="fill:#216778;stroke-width:0"
       d="m -125.97213,1251.2324 c 0,0 0,0 0,0 0,0 0,0 0,0 0,0 0,0 0,0 0,0 0,0 0,0 0,0 0,0 0,0 0,0 0,0 0,0 0,0 0,0 0,0 0,0 0,0 0,0 0,0 0,0 0,0 z"
       id="use1689"
       inkscape:connector-curvature="0"
       sodipodi:nodetypes="cccccscccc" />
    <path
       inkscape:transform-center-y="-4.1426774"
       inkscape:transform-center-x="13.229842"
       inkscape:tile-y0="-61.925932"
       inkscape:tile-x0="-141.3456"
       style="fill:#216778;stroke-width:0"
       d="m -464.11373,1250.1657 c 0.0467,-0.1437 -0.17344,0.5338 -0.20608,0.6343 -0.0103,0.032 -0.0678,0.2086 -0.12768,0.3929 -0.25612,0.7883 -0.40975,1.2611 -0.18495,0.5692 0.19742,-0.6075 0.26817,-0.8253 0.0135,-0.042 -0.15163,0.4667 -0.3268,1.0058 -0.47823,1.4719 -0.23124,0.7116 -0.39524,1.2164 -0.31665,0.9745 0.17252,-0.531 0.54955,-1.6913 0.88943,-2.7374 -0.002,0.01 0.26684,-0.8212 0.32838,-1.0106 0.0312,-0.096 0.0682,-0.21 0.0822,-0.2531 z"
       id="use1691"
       inkscape:connector-curvature="0"
       sodipodi:nodetypes="cccccscccc" />
    <path
       inkscape:transform-center-y="-4.1426774"
       inkscape:transform-center-x="13.229842"
       inkscape:tile-y0="-61.925932"
       inkscape:tile-x0="-141.3456"
       style="fill:#216778;stroke-width:0"
       d="m -793.43733,1139.4422 c 0.17847,-0.2457 -0.66283,0.9123 -0.7876,1.084 -0.0395,0.054 -0.25903,0.3565 -0.48795,0.6716 -0.97887,1.3473 -1.566,2.1554 -0.70684,0.9729 0.75448,-1.0385 1.0249,-1.4107 0.0517,-0.071 -0.57949,0.7976 -1.24894,1.719 -1.82768,2.5156 -0.88377,1.2164 -1.51055,2.079 -1.21018,1.6656 0.65933,-0.9075 2.10029,-2.8908 3.39922,-4.6786 -0.007,0.01 1.01985,-1.4037 1.25501,-1.7274 0.11931,-0.1642 0.26073,-0.3588 0.31433,-0.4326 z"
       id="use1693"
       inkscape:connector-curvature="0"
       sodipodi:nodetypes="cccccscccc" />
    <path
       inkscape:transform-center-y="-4.1426774"
       inkscape:transform-center-x="13.229842"
       inkscape:tile-y0="-61.925932"
       inkscape:tile-x0="-141.3456"
       style="fill:#216778;stroke-width:0"
       d="m -1077.1669,923.12078 c 0.3566,-0.25909 -1.3245,0.96229 -1.5738,1.14343 -0.079,0.0573 -0.5176,0.37605 -0.975,0.7084 -1.956,1.42112 -3.1292,2.27351 -1.4124,1.02618 1.5076,-1.09534 2.0479,-1.48793 0.1032,-0.075 -1.1579,0.84129 -2.4956,1.8132 -3.6521,2.6534 -1.7659,1.28304 -3.0184,2.19299 -2.4182,1.75693 1.3175,-0.95721 4.1969,-3.04918 6.7924,-4.93495 -0.014,0.0103 2.0379,-1.48059 2.5078,-1.822 0.2384,-0.17321 0.521,-0.37853 0.6281,-0.45634 z"
       id="use1695"
       inkscape:connector-curvature="0"
       sodipodi:nodetypes="cccccscccc" />
    <path
       inkscape:transform-center-y="-4.1426774"
       inkscape:transform-center-x="13.229842"
       inkscape:tile-y0="-61.925932"
       inkscape:tile-x0="-141.3456"
       style="fill:#216778;stroke-width:0"
       d="m -1280.1335,618.32927 c 0.5191,-0.16867 -1.928,0.62644 -2.2909,0.74436 -0.1149,0.0373 -0.7534,0.24481 -1.4193,0.46116 -2.8472,0.92513 -4.555,1.48003 -2.056,0.66804 2.1946,-0.71306 2.9812,-0.96863 0.1503,-0.0488 -1.6856,0.54768 -3.6328,1.18038 -5.3162,1.72734 -2.5706,0.83525 -4.3937,1.42762 -3.5201,1.14374 1.9178,-0.62313 6.1092,-1.98498 9.8874,-3.2126 -0.021,0.007 2.9664,-0.96385 3.6505,-1.1861 0.347,-0.11276 0.7584,-0.24642 0.9143,-0.29708 z"
       id="use1697"
       inkscape:connector-curvature="0"
       sodipodi:nodetypes="cccccscccc" />
    <path
       sodipodi:nodetypes="ccsccsccccscccccccscccccccscccccccccccccccccccscscccccccccccccccccccccccccccccccscccccscccccccccccsscccccscccsccscscccccccccccccccccccsccccccccccccccccccscscccccsccccccccccccsccscccccccscccccsccccccccccccccccccccsccsccccccssscscsscscccccccccsccscccsccccccccccsscccccccccccsscccccscsccccccccccscccccccccccccccccccccccccsccccccccccccccccccccccccccc"
       inkscape:connector-curvature="0"
       id="path2276"
       d="m 124.28398,178.22155 c 0.20944,-0.45037 0.16312,-0.85144 -0.17506,-1.51501 -0.82871,-1.6261 -1.2931,-2.14598 -1.70422,-1.9081 -0.19167,0.11086 -0.16485,0.20607 0.3057,1.08429 0.51156,0.95477 0.51445,0.96855 0.35996,1.65919 -0.17623,0.78725 -0.11273,0.98029 0.36436,1.10766 0.40084,0.10708 0.66157,-0.0243 0.84907,-0.42841 z m -2.79704,1.02573 c -0.15788,-0.76713 -0.11209,-1.73094 -0.40044,-2.3856 -0.38587,-0.85996 -0.66674,-1.12639 -0.98996,-0.9394 -0.27397,0.15855 -0.26261,0.26919 0.17574,1.71303 0.17464,0.57536 0.16183,0.70074 -0.12184,1.19311 -0.17434,0.30261 -0.32308,0.6203 -0.33055,0.70598 -0.0244,0.2794 0.23314,0.59957 0.53426,0.66405 0.77465,0.42958 1.00655,-0.52749 1.13275,-0.95117 z m 5.41772,-3.10604 c 0.0137,-0.82675 -1.66894,-3.22163 -2.54385,-2.82749 -0.18401,0.10646 -0.22282,0.20695 -0.13723,0.35487 0.12979,0.22449 1.03831,1.16891 1.21622,1.26441 0.0605,0.0324 0.12021,0.34986 0.13297,0.70532 0.0276,0.77043 0.14295,1.0041 0.53739,1.08848 0.42427,0.091 0.73021,-0.13455 0.79471,-0.58569 z m -9.17418,4.48352 c 0.3235,-0.9877 0.53192,-2.4736 0.33438,-3.3294 -0.17461,-0.74171 -0.38801,-0.96165 -0.73716,-0.75964 -0.25766,0.14902 -0.30635,0.47371 -0.27834,1.85517 0.0106,0.52222 -0.0486,0.68315 -0.35149,0.95587 -0.67809,0.61052 -0.76856,0.84163 -0.52569,1.34289 0.1791,0.3702 0.28328,0.46028 0.55856,0.48413 0.40502,0.0351 0.68057,-0.11624 0.99968,-0.54898 z m 11.27191,-6.7401 c -0.13745,-0.91256 -0.78956,-1.09541 -1.32325,-1.56359 0,0 -1.51846,-0.89572 -1.83525,-0.71245 -0.30964,0.17914 -0.1381,0.4986 0.45264,0.84295 0.31247,0.18217 0.67968,0.37121 0.81603,0.42013 0.20668,0.0741 0.2873,0.20753 0.48519,0.80282 0.19313,0.58117 0.28084,0.73006 0.4716,0.80069 0.3398,0.12538 0.94384,-0.25692 0.93283,-0.59037 z m 1.20078,-2.75909 c 0.25129,-0.54041 -0.48058,-1.43064 -1.12468,-1.36798 -0.17362,0.0169 -0.41413,-0.0707 -0.53442,-0.19466 -0.25687,-0.26473 -1.57875,-0.36844 -1.76467,-0.13847 -0.22734,0.28129 0.0764,0.50666 0.9904,0.7351 0.86037,0.21498 0.92358,0.25429 1.2116,0.7521 0.24467,0.42282 0.36825,0.53082 0.63421,0.55387 0.18173,0.015 0.35679,0.0126 0.38904,-0.005 0.0323,-0.0184 0.12162,-0.16924 0.19852,-0.33464 z m -16.2031,9.11462 c 0.28183,-1.13273 0.96539,-2.1416 0.89934,-3.22456 -0.0348,-0.4873 -0.0819,-0.60136 -0.27465,-0.67249 -0.40471,-0.1494 -0.56763,0.0837 -0.90655,1.29721 l -0.33046,1.18309 -0.65611,0.34576 c -0.73696,0.38837 -0.86324,0.61484 -0.66642,1.19492 0.25375,0.74785 1.36058,0.67696 1.93483,-0.12391 z m 38.96076,-23.02888 c 0.31732,-0.32385 0.66031,-0.71929 0.76212,-0.87883 0.86012,-1.34807 0.25747,-2.9972 -1.2415,-3.39738 -1.0962,-0.29267 -2.05161,0.1357 -2.53521,1.1367 -0.36505,0.75558 -0.99632,1.26553 -2.10409,1.6997 -1.41908,0.55617 -4.08013,1.04407 -5.57052,1.02133 -0.19583,-0.003 -0.74843,0.0301 -1.22796,0.0737 -0.47951,0.0436 -0.96947,0.0752 -1.0888,0.0702 -0.92038,-9.8e-4 -4.13047,0.70175 -4.02717,1.21378 1.76714,0.0396 3.34623,0.14718 5.00004,0.56807 1.18464,0.30601 2.75034,0.56657 3.27298,0.54466 0.20227,-0.008 0.66789,0.0231 1.03475,0.0701 0.99198,0.12719 3.35226,-0.0755 4.44217,-0.38143 1.39264,-0.39087 2.57538,-1.0176 3.28316,-1.73976 z m -41.29428,19.81849 c 0.17833,-0.4675 0.28815,-0.97624 0.244,-1.13056 -0.0863,-0.30179 -0.43654,-0.49428 -0.66198,-0.36386 -0.13571,0.0782 -0.69261,1.01517 -1.06182,1.78555 -0.17756,0.37049 -0.21182,0.39228 -0.83458,0.53108 -0.86475,0.19257 -1.05347,0.31735 -1.15837,0.76569 -0.11721,0.50122 0.14619,0.92896 0.65572,1.06502 0.33338,0.089 0.51577,0.048 0.97793,-0.21929 0.67061,-0.68454 1.5429,-1.66559 1.8391,-2.43363 z m 19.30281,-11.66177 c 0.0294,-0.1102 -0.008,-0.3062 -0.0826,-0.43554 -0.18336,-0.31694 -1.00682,-0.60007 -1.28203,-0.44085 -0.12211,0.0702 -0.39126,0.0886 -0.59837,0.0403 -0.26313,-0.0615 -0.56385,5.3e-4 -0.99806,0.20587 -0.55463,0.26238 -0.60575,0.31187 -0.47378,0.46403 0.0942,0.10849 0.45323,0.12759 0.99045,0.0535 0.71849,-0.0999 0.90359,-0.0729 1.25467,0.18354 0.57996,0.42354 1.06549,0.3949 1.18966,-0.0702 z m -23.57277,11.42626 c 0.1242,-0.12086 0.33459,-0.39854 0.46757,-0.61696 0.13295,-0.21848 0.32682,-0.4107 0.43071,-0.42727 0.10394,-0.0166 0.13861,-0.0569 0.0772,-0.0901 -0.13566,-0.073 0.0576,-0.3288 0.39598,-0.52465 0.27757,-0.16057 0.64633,-0.79024 0.94647,-1.61609 0.10964,-0.3017 0.31554,-0.75952 0.45753,-1.01741 0.57383,-0.98463 -0.42178,-0.29532 -0.66833,0.0776 -0.63571,0.9933 -1.81987,2.33608 -2.3104,2.61987 -1.35826,1.50409 -1.29076,-0.0944 -2.16797,0.84706 -0.3907,0.42252 -0.4028,0.4718 -0.21388,0.87134 0.39977,0.84552 1.65189,0.78591 2.58534,-0.12304 z m 23.07251,-13.88512 c 0.0449,-0.16804 -0.23459,-0.60069 -0.49055,-0.75932 -0.27402,-0.16985 -1.02414,-0.1511 -1.12001,0.0269 -0.0379,0.0705 -0.22766,0.11987 -0.42204,0.10879 -0.48842,-0.0272 -1.543,0.58446 -1.49809,0.8679 0.0426,0.26701 0.28455,0.26847 0.93396,0.006 0.80841,-0.32711 0.89294,-0.3303 1.44969,-0.0533 0.40207,0.20003 0.58846,0.21972 0.81875,0.0865 0.164,-0.095 0.31156,-0.22262 0.32792,-0.28379 z m -0.93199,-2.25896 c 0.0998,-0.58763 -0.8258,-0.90388 -1.57394,-0.53778 -0.21432,0.10533 -0.58567,0.26509 -0.82482,0.35581 -0.64666,0.24525 -1.11797,0.6893 -0.98175,0.92474 0.126,0.21782 0.55934,0.11121 1.30778,-0.32184 0.39691,-0.22966 0.52635,-0.23857 0.9678,-0.0658 0.55363,0.21652 1.0341,0.0619 1.10494,-0.35512 z m 20.18207,-11.9115 c 0.54069,-0.45388 0.81483,-0.96937 0.86912,-1.63401 0.0912,-1.11624 -0.41937,-1.99805 -1.45043,-2.50527 -0.50032,-0.24611 -0.8254,-0.28788 -1.77008,-0.22747 -1.5221,0.0973 -2.33289,0.33775 -3.95257,1.17221 -1.3456,0.69329 -2.22326,1.3117 -3.63063,2.55769 -1.88118,1.02869 -3.15752,3.87603 -4.51433,5.00142 -0.16262,0.12514 -0.51316,0.45564 -0.77902,0.73425 -0.2659,0.27855 -0.88293,0.79256 -1.37118,1.14227 -1.09621,0.78512 -1.14774,0.84832 -0.9584,1.17556 3.18945,-1.03456 5.84713,-2.7218 7.49423,-3.91052 2.98094,-2.1522 6.15025,-3.40992 7.61047,-3.02004 1.02298,0.27311 1.71098,0.13671 2.45287,-0.48608 z m -43.80477,24.37836 c 0.27,-0.21384 0.56026,-0.50103 0.64512,-0.63797 0.0847,-0.13698 0.23112,-0.29344 0.32502,-0.34778 0.0941,-0.0539 0.31339,-0.31354 0.48771,-0.57613 0.17433,-0.2626 0.50299,-0.67749 0.73028,-0.92208 0.2664,-0.28669 0.37874,-0.50447 0.31608,-0.61279 -0.10013,-0.17295 -0.0902,-0.17884 -1.42142,0.83737 -2.05194,1.56656 -3.04211,1.98134 -4.06486,1.70282 -0.7764,-0.21143 -1.21786,-0.0157 -1.3861,0.61449 -0.0823,0.30815 -0.0516,0.50462 0.11501,0.73675 0.2229,0.31057 0.51144,0.36168 1.62201,0.2872 0.1495,-0.01 0.22692,0.0135 0.17208,0.0534 -0.0546,0.0398 0.0586,0.0708 0.25215,0.07 0.37926,-0.002 1.37425,-0.54543 2.20678,-1.20532 z m 21.95841,-14.60431 c 0.0544,-0.32062 -0.25795,-0.56095 -0.67635,-0.52021 -0.70943,0.0685 -2.30361,1.46018 -2.09218,1.82565 0.11071,0.19135 0.38937,0.0495 0.96791,-0.4903 0.34243,-0.31969 0.47052,-0.37299 0.88842,-0.3695 0.57657,0.005 0.85894,-0.1331 0.91201,-0.44601 z m -3.76682,-0.29812 c 0.36908,-0.52498 0.64393,-0.70979 1.28085,-0.86126 0.37199,-0.0885 0.49425,-0.16293 0.56008,-0.34132 0.30475,-0.82574 -1.20369,-0.84454 -1.55134,-0.0194 -0.0635,0.1508 -0.23165,0.34129 -0.37364,0.42345 -0.36694,0.21226 -0.73917,0.96167 -0.59848,1.20483 0.14314,0.2475 0.28017,0.16589 0.68244,-0.40654 z m -18.34776,10.62354 c 0.11638,-0.13438 0.50781,-0.42203 0.86989,-0.63919 0.48973,-0.29392 0.65015,-0.44602 0.62649,-0.59439 -0.0474,-0.29607 -0.15004,-0.28555 -1.04862,0.1073 -1.44288,0.63079 -1.82755,0.77438 -2.81734,1.05195 -1.19569,0.33533 -2.23986,0.30243 -2.67409,-0.0841 -0.58852,-0.52405 -1.4699,-0.31684 -1.761705,0.41428 -0.472435,1.18359 1.255245,2.06501 3.205665,1.63547 0.68041,-0.14988 3.26972,-1.51018 3.59972,-1.89116 z m 24.04985,-15.62505 c 2.09196,-2.019 0.61421,-0.29665 2.58067,-2.69583 0.0809,-0.15748 0.25508,-0.35049 0.38716,-0.42888 0.13242,-0.0778 0.51097,-0.55168 0.84194,-1.0518 0.33097,-0.50011 0.63831,-0.93045 0.68296,-0.95626 0.0447,-0.0258 0.40582,-0.446 0.80258,-0.93364 2.10143,-2.58293 4.71183,-4.30677 6.10331,-4.03045 1.32851,0.26384 2.50391,-0.36679 2.88702,-1.54899 0.22766,-1.22559 0.1541,-2.48374 -1.3564,-3.18581 -1.94684,-0.59878 -5.23535,1.00363 -6.65714,2.38302 -0.79607,0.8042 -2.15005,2.55874 -2.64899,3.43256 -0.25067,0.4391 -0.60927,1.05897 -0.79685,1.37756 -0.18758,0.31858 -0.41935,0.81095 -0.51501,1.09417 -0.46011,1.64823 -3.42387,6.55614 -3.42858,6.90372 0.10262,0.17724 0.41925,0.22004 0.58693,0.0785 0.0352,-0.0289 0.27351,-0.22691 0.53024,-0.439 z m -7.94524,4.09959 c 0.26528,-0.60474 0.35028,-0.69653 0.90836,-0.98088 0.58221,-0.29671 0.61234,-0.33242 0.55347,-0.65748 -0.0898,-0.49608 -0.41651,-0.57924 -0.98456,-0.25053 -0.34147,0.19757 -0.49116,0.37369 -0.5899,0.69423 -0.0728,0.23624 -0.21124,0.47516 -0.30769,0.53097 -0.70781,1.12667 -0.11541,1.86062 0.4203,0.66373 z m -15.44875,7.53482 c -0.11102,-0.19177 -0.86837,-0.22646 -1.37185,-0.0629 -0.19868,0.0646 -0.43665,0.10594 -0.52868,0.0919 -0.0921,-0.0141 -0.51236,0.0282 -0.93401,0.0933 -1.276,0.19855 -2.24929,0.17612 -3.15214,-0.0726 -0.680097,-0.18742 -0.924308,-0.32191 -1.175683,-0.64725 -0.613803,-0.79433 -1.699255,-0.70485 -2.074738,0.17111 -0.363287,0.84752 0.18936,1.56943 1.59421,2.08261 0.727776,0.26583 1.113052,0.3129 2.009491,0.24551 0.61,-0.0459 1.35499,-0.15258 1.65553,-0.23699 0.30053,-0.0845 0.73114,-0.19591 0.95688,-0.24765 0.22576,-0.0518 0.71704,-0.24575 1.09174,-0.43116 0.37452,-0.18575 0.89895,-0.40007 1.16501,-0.477 0.67944,-0.19649 0.87122,-0.32428 0.76417,-0.50927 z m -0.14419,-2.93337 c -0.13094,-0.22632 -1.32427,-0.52085 -1.55929,-0.38487 -0.085,0.0494 -0.2525,0.0284 -0.37211,-0.0448 -0.11958,-0.0742 -0.59616,-0.16359 -1.059,-0.19906 -1.92231,-0.14695 -3.861344,-1.01384 -4.190869,-1.87373 -0.34468,-0.8996 -1.101771,-1.19186 -1.896407,-0.73212 -0.339688,0.19657 -0.463491,0.3585 -0.565236,0.73971 -0.07166,0.26843 -0.07106,0.6016 0.0014,0.74039 0.787451,1.5089 2.226105,2.25334 4.73406,2.44968 0.36337,0.029 0.73263,0.0102 0.82052,-0.0408 0.0879,-0.0508 0.21782,-0.0613 0.28874,-0.0237 0.20975,0.11268 1.44787,0.007 1.71274,-0.14654 0.13454,-0.0776 0.40979,-0.12703 0.61201,-0.10938 0.52861,0.046 1.29345,-0.005 1.45234,-0.0968 0.0751,-0.0433 0.0844,-0.16855 0.0213,-0.27808 z m 21.10257,-12.73041 c 0.29512,-1.71501 1.48451,-2.95762 1.83352,-4.68537 0.0436,-0.23879 0.14878,-0.4743 0.23361,-0.52339 0.1696,-0.0982 1.22218,-1.76627 1.36193,-2.15845 0.11761,-0.33009 1.45984,-1.59178 2.0672,-1.94318 0.30673,-0.17745 0.59757,-0.25831 0.78458,-0.21828 0.17011,0.0365 0.5543,-0.0582 0.89837,-0.22067 1.56406,-0.73961 1.81393,-2.75549 0.47615,-3.84059 -0.57824,-0.469 -1.37138,-0.62384 -2.18903,-0.42731 -0.7754,0.18632 -2.34831,1.18315 -3.02753,1.91973 -0.61062,0.66163 -1.46163,1.98303 -1.42502,2.21272 0.0169,0.10597 -0.14606,0.45076 -0.36216,0.76615 -0.47131,0.68795 -1.06109,2.42043 -0.9966,2.92755 0.0254,0.19988 -0.0522,0.56584 -0.17247,0.81323 -0.26669,1.17549 -1.08055,6.11013 -1.01309,6.30669 0.34353,0.59369 0.91377,0.24764 1.53057,-0.92872 z m -20.81765,9.6428 c -0.0455,-0.28547 -0.75777,-0.71591 -1.28228,-0.77499 -0.22982,-0.025 -0.45227,-0.10701 -0.49468,-0.18026 -0.0424,-0.0733 -0.46519,-0.27734 -0.93953,-0.45341 -1.17884,-0.4376 -2.55815,-1.30007 -3.16176,-1.97701 -0.43895,-0.49242 -0.5116,-0.63207 -0.58249,-1.12152 -0.102028,-0.70403 -0.413746,-1.05628 -1.031432,-1.16551 -1.088936,-0.1925 -1.850848,0.89565 -1.407714,2.01064 0.219395,0.55214 1.031359,1.527 1.666301,2.00066 0.560618,0.41824 2.612865,1.25135 2.937165,1.19232 0.11672,-0.0214 0.43308,0.0537 0.70317,0.16594 0.27003,0.1125 0.55827,0.16559 0.64051,0.11807 0.082,-0.0479 0.25562,-0.0206 0.38512,0.0598 0.12955,0.0802 0.30096,0.1082 0.38077,0.0624 0.08,-0.0457 0.48702,0.002 0.90478,0.10727 1.00571,0.25321 1.32753,0.24224 1.28195,-0.0436 z m 16.24606,-10.51437 c -0.13552,-1.64384 0.70904,-3.0661 0.56321,-4.73872 -0.0226,-0.20116 0.007,-0.45098 0.0645,-0.55518 0.0579,-0.10411 0.28449,-0.81279 0.50369,-1.57465 0.21922,-0.76188 0.56035,-1.65463 0.75806,-1.98396 0.52464,-0.87377 1.15641,-1.57335 1.46283,-1.61981 0.98655,-0.14956 1.81318,-1.28271 1.69961,-2.32989 -0.0528,-0.48722 -0.13685,-0.67833 -0.49016,-1.1152 -2.26067,-2.19144 -5.02437,1.47499 -5.22497,1.86566 -0.38625,0.68056 -0.93394,2.41919 -0.82266,2.61152 0.0449,0.0783 -0.0122,0.36795 -0.12718,0.64428 -0.24935,0.59859 -0.38268,2.53111 -0.21077,3.05487 0.067,0.20396 0.0799,0.55388 0.0288,0.77756 0.081,0.65854 0.5195,5.8648 0.66093,6.0891 0.15852,0.21304 0.26039,0.23292 0.54035,0.10534 0.29902,-0.1361 0.3782,-0.30015 0.59368,-1.23097 z m -14.52015,7.39522 c -0.0421,-0.26487 -0.95925,-1.10932 -1.26014,-1.16041 -0.1253,-0.0217 -0.35968,-0.19441 -0.52058,-0.38469 -0.16096,-0.19028 -0.63811,-0.59076 -1.06045,-0.88991 -1.80604,-1.27942 -3.13142,-3.20913 -2.94129,-4.28244 0.16698,-0.9425 -0.60444,-1.80775 -1.54336,-1.73111 -0.55916,0.0454 -1.032326,0.37014 -1.291945,0.88604 -0.396463,0.78775 0.19106,2.71406 1.134345,3.7192 1.96456,2.03944 3.78693,2.43856 5.79301,3.52158 0.13513,0.22486 1.3881,0.7237 1.56261,0.62275 0.0886,-0.0512 0.14603,-0.18667 0.1278,-0.30101 z m 10.28084,-6.53328 c -0.36497,-1.65442 -0.11316,-3.49119 -0.65139,-5.10419 -0.0763,-0.21613 -0.10402,-0.4866 -0.0616,-0.60108 0.0422,-0.11451 0.0762,-0.75902 0.0758,-1.43237 -0.002,-1.87066 0.52556,-3.42058 1.32093,-3.88075 0.91254,-0.52796 1.13779,-1.78388 0.48407,-2.69901 -0.41871,-0.5861 -1.17917,-0.93432 -1.85063,-0.84743 -0.84203,0.10897 -1.81664,0.99294 -2.10702,1.91066 -0.0585,0.18473 -0.21703,0.51461 -0.35241,0.73297 -0.31355,0.50577 -0.55695,2.34738 -0.39545,2.99225 0.068,0.27128 0.0934,0.64146 0.0565,0.82263 -0.0917,0.4506 0.25163,2.10294 0.54078,2.60267 0.12994,0.22456 0.2295,0.55287 0.22137,0.72957 0.40521,1.15098 1.64289,4.84366 1.99397,5.21627 0.21641,0.17491 0.64997,-0.0893 0.72555,-0.44216 z m -4.01656,1.3171 c 0.002,-0.07 -0.10466,-0.48135 -0.23699,-0.91446 -0.82475,-1.02831 -0.89339,-2.18701 -1.36298,-3.14248 -0.24876,-0.50231 -0.44269,-0.9823 -0.43154,-1.06641 0.0117,-0.0842 -0.11329,-0.65962 -0.27657,-1.27888 -0.34872,-1.32243 -0.33333,-3.00997 0.0317,-3.4649 0.73268,-0.91333 0.83889,-1.54193 0.39102,-2.31458 -0.48993,-0.84525 -1.37522,-1.14718 -2.27514,-0.77603 -0.55158,0.2274 -1.28021,1.22257 -1.32689,1.8121 -0.0163,0.2049 -0.0802,0.64107 -0.14217,0.96919 -0.15559,0.82416 -0.0222,1.98986 0.32385,2.82803 0.15983,0.38731 0.33605,0.89989 0.39154,1.13902 1.26451,2.5581 0.48711,1.37109 1.98618,3.47102 0.31712,0.43943 0.65535,0.84101 0.75176,0.8923 0.0964,0.0514 0.45172,0.54991 0.78962,1.10803 0.33787,0.55813 0.6738,1.0467 0.74656,1.0857 0.16083,0.0864 0.63464,-0.17103 0.63983,-0.34744 z m -3.59295,2.10949 c 0.0493,-0.18462 -0.65567,-1.31522 -0.97103,-1.55845 -0.16209,-0.12477 -0.50599,-0.56379 -0.76415,-0.97554 -0.25806,-0.41183 -0.60934,-0.87568 -0.7804,-1.03085 -2.87203,-3.31851 -1.625,-4.44679 -1.5765,-5.86334 0.0121,-0.52487 -0.17708,-0.92418 -0.60211,-1.27072 -0.99416,-0.81074 -2.37953,-0.28206 -2.73334,1.04324 -0.0247,1.18316 0.28254,3.42554 0.95983,4.28243 0.20381,0.24934 0.4316,0.5826 0.50633,0.74055 1.69492,1.9204 3.15582,2.98691 4.85644,4.49117 0.49696,0.43641 0.64112,0.50355 0.8374,0.38999 0.13037,-0.0755 0.25046,-0.18725 0.26682,-0.24845 z"
       style="fill:#216778;stroke-width:0.12219842"
       inkscape:export-xdpi="12.300238"
       inkscape:export-ydpi="12.300238" />
    <g
       id="g934"
       transform="matrix(2.3001271,-2.3764667,2.3764667,2.3001271,-120.95666,402.2231)">











</g>
  </g>
  <style
     id="style894"
     type="text/css">
	.st0{fill:#B4E6DD;}
	.st1{fill:#80D4C4;}
	.st2{fill:#D2F0EA;}
	.st3{fill:#FFFFFF;}
	.st4{fill:#FBD872;}
	.st5{fill:#DB7767;}
	.st6{fill:#F38E7A;}
	.st7{fill:#F6AF62;}
	.st8{fill:#32A48E;}
	.st9{fill:#A38FD8;}
	.st10{fill:#7C64BD;}
	.st11{fill:#EAA157;}
	.st12{fill:#9681CF;}
	.st13{fill:#F9C46A;}
	.st14{fill:#CE6B61;}
</style>
</svg>
