<?xml version="1.0" encoding="UTF-8" standalone="no"?>
<!-- Created with Inkscape (http://www.inkscape.org/) -->

<svg
   xmlns:dc="http://purl.org/dc/elements/1.1/"
   xmlns:cc="http://creativecommons.org/ns#"
   xmlns:rdf="http://www.w3.org/1999/02/22-rdf-syntax-ns#"
   xmlns:svg="http://www.w3.org/2000/svg"
   xmlns="http://www.w3.org/2000/svg"
   xmlns:sodipodi="http://sodipodi.sourceforge.net/DTD/sodipodi-0.dtd"
   xmlns:inkscape="http://www.inkscape.org/namespaces/inkscape"
   width="11in"
   height="8.5in"
   viewBox="0 0 279.4 215.9"
   version="1.1"
   id="svg8"
   inkscape:version="0.92.4 (5da689c313, 2019-01-14)"
   sodipodi:docname="favicon_white.svg"
   inkscape:export-filename="C:\Users\migue\OneDrive\Documentos\proyectos\2024_Servicios_bioinfomraticos\Thalassomics\images\logo_simple.png"
   inkscape:export-xdpi="300"
   inkscape:export-ydpi="300">
  <defs
     id="defs2" />
  <sodipodi:namedview
     id="base"
     pagecolor="#ffffff"
     bordercolor="#666666"
     borderopacity="1.0"
     inkscape:pageopacity="0.0"
     inkscape:pageshadow="2"
     inkscape:zoom="0.7"
     inkscape:cx="647.54679"
     inkscape:cy="447.59743"
     inkscape:document-units="mm"
     inkscape:current-layer="g858"
     showgrid="false"
     inkscape:window-width="1920"
     inkscape:window-height="1001"
     inkscape:window-x="-9"
     inkscape:window-y="-9"
     inkscape:window-maximized="1"
     units="in" />
  <metadata
     id="metadata5">
    <rdf:RDF>
      <cc:Work
         rdf:about="">
        <dc:format>image/svg+xml</dc:format>
        <dc:type
           rdf:resource="http://purl.org/dc/dcmitype/StillImage" />
        <dc:title></dc:title>
      </cc:Work>
    </rdf:RDF>
  </metadata>
  <g
     inkscape:label="Layer 1"
     inkscape:groupmode="layer"
     id="layer1"
     transform="translate(0,-81.1)">
    <path
       inkscape:transform-center-y="-4.1426774"
       inkscape:transform-center-x="13.229842"
       inkscape:tile-y0="-61.925932"
       inkscape:tile-x0="-141.3456"
       style="fill:#216778;stroke-width:0"
       d="m -670.26646,-343.93076 c 0.11953,0.0868 -0.44394,-0.32254 -0.52751,-0.38326 -0.0265,-0.0192 -0.17348,-0.12604 -0.3268,-0.23744 -0.65562,-0.47633 -1.04885,-0.76203 -0.47342,-0.34395 0.50532,0.36713 0.68644,0.49872 0.0346,0.0251 -0.38812,-0.28199 -0.8365,-0.60775 -1.22411,-0.88937 -0.59192,-0.43005 -1.01171,-0.73504 -0.81053,-0.58888 0.44159,0.32083 1.40669,1.02202 2.27666,1.65409 -0.005,-0.003 0.68305,0.49627 0.84056,0.6107 0.0799,0.0581 0.17462,0.12687 0.21052,0.15296 z"
       id="use1663"
       inkscape:connector-curvature="0"
       sodipodi:nodetypes="cccccscccc" />
    <path
       inkscape:transform-center-y="-4.1426774"
       inkscape:transform-center-x="13.229842"
       inkscape:tile-y0="-61.925932"
       inkscape:tile-x0="-141.3456"
       style="fill:#216778;stroke-width:0"
       d="m -537.79382,-504.01951 c 0.069,0.0949 -0.25612,-0.35253 -0.30434,-0.41889 -0.0153,-0.021 -0.10009,-0.13776 -0.18855,-0.25951 -0.37825,-0.52062 -0.60512,-0.83289 -0.27313,-0.37594 0.29154,0.40127 0.39603,0.54509 0.02,0.0275 -0.22393,-0.3082 -0.48261,-0.66425 -0.70624,-0.97205 -0.3415,-0.47004 -0.5837,-0.80339 -0.46763,-0.64364 0.25477,0.35066 0.81158,1.11704 1.3135,1.80788 -0.003,-0.004 0.39408,0.54241 0.48495,0.66748 0.0461,0.0635 0.10075,0.13867 0.12146,0.16718 z"
       id="use1665"
       inkscape:connector-curvature="0"
       sodipodi:nodetypes="cccccscccc" />
    <path
       inkscape:transform-center-y="-4.1426774"
       inkscape:transform-center-x="13.229842"
       inkscape:tile-y0="-61.925932"
       inkscape:tile-x0="-141.3456"
       style="fill:#216778;stroke-width:0"
       d="m -350.6362,-617.3583 c 0.0207,0.0639 -0.0771,-0.23723 -0.0916,-0.28189 -0.005,-0.0141 -0.0301,-0.0927 -0.0567,-0.17464 -0.11383,-0.35035 -0.18211,-0.56048 -0.0822,-0.25298 0.0877,0.27003 0.11919,0.36681 0.006,0.0185 -0.0674,-0.2074 -0.14524,-0.44701 -0.21254,-0.65414 -0.10278,-0.31631 -0.17566,-0.54064 -0.14073,-0.43313 0.0767,0.23598 0.24424,0.75171 0.39529,1.2166 -8.2e-4,-0.003 0.1186,0.36501 0.14595,0.44918 0.0139,0.0427 0.0303,0.0933 0.0365,0.1125 z"
       id="use1667"
       inkscape:connector-curvature="0"
       sodipodi:nodetypes="cccccscccc" />
    <path
       inkscape:transform-center-y="-4.1426774"
       inkscape:transform-center-x="13.229842"
       inkscape:tile-y0="-61.925932"
       inkscape:tile-x0="-141.3456"
       style="fill:#216778;stroke-width:0"
       d="m -125.97213,-666.80381 c 0,0 0,0 0,0 0,0 0,0 0,0 0,0 0,0 0,0 0,0 0,0 0,0 0,0 0,0 0,0 0,0 0,0 0,0 0,0 0,0 0,0 0,0 0,0 0,0 0,0 0,0 0,0 z"
       id="use1669"
       inkscape:connector-curvature="0"
       sodipodi:nodetypes="cccccscccc" />
    <path
       inkscape:transform-center-y="-4.1426774"
       inkscape:transform-center-x="13.229842"
       inkscape:tile-y0="-61.925932"
       inkscape:tile-x0="-141.3456"
       style="fill:#216778;stroke-width:0"
       d="m 113.96687,-641.80536 c 0.0244,-0.075 -0.0905,0.27841 -0.10749,0.33082 -0.005,0.0166 -0.0354,0.10881 -0.0666,0.20496 -0.1336,0.41117 -0.21373,0.65779 -0.0965,0.29691 0.10297,-0.31692 0.13988,-0.4305 0.007,-0.0217 -0.0791,0.24342 -0.17045,0.52461 -0.24944,0.76771 -0.12062,0.37122 -0.20616,0.6345 -0.16517,0.50833 0.09,-0.27695 0.28665,-0.88222 0.46393,-1.42782 -9.7e-4,0.003 0.13919,-0.42838 0.17129,-0.52716 0.0163,-0.0501 0.0356,-0.10952 0.0429,-0.13203 z"
       id="use1671"
       inkscape:connector-curvature="0"
       sodipodi:nodetypes="cccccscccc" />
    <path
       inkscape:transform-center-y="-4.1426774"
       inkscape:transform-center-x="13.229842"
       inkscape:tile-y0="-61.925932"
       inkscape:tile-x0="-141.3456"
       style="fill:#216778;stroke-width:0"
       d="m 344.51941,-539.64283 c 0.095,-0.13081 -0.35296,0.48581 -0.4194,0.57726 -0.021,0.0289 -0.13793,0.18984 -0.25983,0.35763 -0.52126,0.71745 -0.83391,1.14777 -0.3764,0.51806 0.40176,-0.55298 0.54576,-0.75117 0.0275,-0.0379 -0.30858,0.42473 -0.66507,0.91539 -0.97325,1.33957 -0.47061,0.64774 -0.80437,1.10712 -0.64443,0.88698 0.3511,-0.48325 1.11842,-1.53937 1.81011,-2.4914 -0.004,0.005 0.54307,-0.74747 0.6683,-0.91983 0.0635,-0.0874 0.13884,-0.1911 0.16738,-0.23038 z"
       id="use1673"
       inkscape:connector-curvature="0"
       sodipodi:nodetypes="cccccscccc" />
    <path
       inkscape:transform-center-y="-4.1426774"
       inkscape:transform-center-x="13.229842"
       inkscape:tile-y0="-61.925932"
       inkscape:tile-x0="-141.3456"
       style="fill:#216778;stroke-width:0"
       d="m 541.32212,-365.60225 c 0.19362,-0.14067 -0.7191,0.52246 -0.85447,0.62081 -0.0429,0.0311 -0.28102,0.20418 -0.52937,0.38462 -1.06199,0.77157 -1.69897,1.23437 -0.76686,0.55715 0.81854,-0.5947 1.11191,-0.80785 0.0561,-0.0407 -0.62869,0.45677 -1.35498,0.98445 -1.98285,1.44063 -0.95881,0.69661 -1.6388,1.19065 -1.31294,0.9539 0.71531,-0.5197 2.27862,-1.65551 3.68783,-2.67936 -0.008,0.006 1.10643,-0.80387 1.36156,-0.98924 0.12944,-0.094 0.28287,-0.20551 0.34102,-0.24776 z"
       id="use1675"
       inkscape:connector-curvature="0"
       sodipodi:nodetypes="cccccscccc" />
    <path
       inkscape:transform-center-y="-4.1426774"
       inkscape:transform-center-x="13.229842"
       inkscape:tile-y0="-61.925932"
       inkscape:tile-x0="-141.3456"
       style="fill:#216778;stroke-width:0"
       d="m 682.72108,-132.2628 c 0.28703,-0.0933 -1.06603,0.34638 -1.2667,0.41158 -0.0635,0.0206 -0.4166,0.13536 -0.78477,0.25499 -1.57433,0.51153 -2.51861,0.81834 -1.13682,0.36937 1.21344,-0.39427 1.64835,-0.53558 0.0831,-0.027 -0.932,0.30282 -2.00868,0.65266 -2.93947,0.95509 -1.42137,0.46183 -2.42942,0.78937 -1.94634,0.6324 1.0604,-0.34454 3.37791,-1.09754 5.46698,-1.77632 -0.0114,0.004 1.64022,-0.53294 2.01843,-0.65583 0.19189,-0.0623 0.41934,-0.13625 0.50554,-0.16426 z"
       id="use1677"
       inkscape:connector-curvature="0"
       sodipodi:nodetypes="cccccscccc" />
    <path
       inkscape:transform-center-y="-4.1426774"
       inkscape:transform-center-x="13.229842"
       inkscape:tile-y0="-61.925932"
       inkscape:tile-x0="-141.3456"
       style="fill:#216778;stroke-width:0"
       d="m 751.64398,141.77977 c 0.33959,0 -1.26126,0 -1.49868,0 -0.0752,0 -0.49288,0 -0.92849,0 -1.86264,0 -2.97985,0 -1.345,0 1.43566,0 1.95021,0 0.0983,0 -1.10267,0 -2.37654,0 -3.47778,0 -1.68167,0 -2.87433,0 -2.30278,0 1.2546,0 3.99652,0 6.46816,0 -0.0135,0 1.94061,0 2.38809,0 0.22702,0 0.49612,0 0.59811,0 z"
       id="use1679"
       inkscape:connector-curvature="0"
       sodipodi:nodetypes="cccccscccc" />
    <path
       inkscape:transform-center-y="-4.1426774"
       inkscape:transform-center-x="13.229842"
       inkscape:tile-y0="-61.925932"
       inkscape:tile-x0="-141.3456"
       style="fill:#216778;stroke-width:0"
       d="m 736.93592,433.43778 c 0.32798,0.10657 -1.21814,-0.3958 -1.44745,-0.4703 -0.0726,-0.0236 -0.47603,-0.15468 -0.89674,-0.29137 -1.79896,-0.58452 -2.87799,-0.93512 -1.29902,-0.42208 1.38657,0.45053 1.88354,0.612 0.095,0.0308 -1.06498,-0.34603 -2.2953,-0.74578 -3.35889,-1.09136 -1.62418,-0.52773 -2.77607,-0.902 -2.22406,-0.72265 1.21171,0.39371 3.85989,1.25416 6.24704,2.02979 -0.013,-0.004 1.87426,0.60899 2.30645,0.74941 0.21926,0.0712 0.47916,0.15569 0.57767,0.1877 z"
       id="use1681"
       inkscape:connector-curvature="0"
       sodipodi:nodetypes="cccccscccc" />
    <path
       inkscape:transform-center-y="-4.1426774"
       inkscape:transform-center-x="13.229842"
       inkscape:tile-y0="-61.925932"
       inkscape:tile-x0="-141.3456"
       style="fill:#216778;stroke-width:0"
       d="m 634.32358,716.73131 c 0.25289,0.18373 -0.93924,-0.6824 -1.11604,-0.81086 -0.056,-0.0407 -0.36705,-0.26667 -0.69143,-0.50235 -1.38708,-1.00777 -2.21905,-1.61224 -1.00161,-0.72771 1.06912,0.77676 1.4523,1.05515 0.0732,0.0532 -0.82115,-0.5966 -1.76978,-1.28582 -2.58986,-1.88164 -1.25231,-0.90986 -2.14047,-1.55514 -1.71485,-1.24591 0.93429,0.6788 2.97615,2.1623 4.81675,3.49957 -0.01,-0.007 1.44514,1.04996 1.77837,1.29206 0.16906,0.12283 0.36946,0.26843 0.44541,0.32361 z"
       id="use1683"
       inkscape:connector-curvature="0"
       sodipodi:nodetypes="cccccscccc" />
    <path
       inkscape:transform-center-y="-4.1426774"
       inkscape:transform-center-x="13.229842"
       inkscape:tile-y0="-61.925932"
       inkscape:tile-x0="-141.3456"
       style="fill:#216778;stroke-width:0"
       d="m 447.17357,964.49369 c 0.14196,0.1954 -0.52726,-0.72571 -0.62652,-0.86232 -0.0314,-0.0432 -0.20604,-0.2836 -0.38814,-0.53424 -0.77867,-1.07174 -1.24572,-1.71458 -0.56228,-0.7739 0.60017,0.82606 0.81528,1.12213 0.0411,0.0566 -0.46097,-0.63447 -0.9935,-1.36743 -1.45387,-2.00107 -0.70301,-0.96762 -1.2016,-1.65386 -0.96267,-1.325 0.52448,0.72188 1.67073,2.29955 2.70398,3.72171 -0.006,-0.008 0.81126,1.1166 0.99833,1.37408 0.0949,0.13062 0.2074,0.28546 0.25004,0.34415 z"
       id="use1685"
       inkscape:connector-curvature="0"
       sodipodi:nodetypes="cccccscccc" />
    <path
       inkscape:transform-center-y="-4.1426774"
       inkscape:transform-center-x="13.229842"
       inkscape:tile-y0="-61.925932"
       inkscape:tile-x0="-141.3456"
       style="fill:#216778;stroke-width:0"
       d="m 187.07303,1150.3625 c 0.0417,0.1282 -0.1547,-0.4761 -0.18382,-0.5657 -0.009,-0.028 -0.0605,-0.1861 -0.11388,-0.3505 -0.22846,-0.7031 -0.36549,-1.1249 -0.16497,-0.5077 0.17609,0.5419 0.2392,0.7362 0.0121,0.037 -0.13525,-0.4163 -0.29149,-0.8971 -0.42656,-1.3128 -0.20627,-0.6348 -0.35255,-1.0851 -0.28245,-0.8693 0.15388,0.4736 0.49019,1.5086 0.79335,2.4417 -0.002,-0.01 0.23802,0.7325 0.2929,0.9014 0.0279,0.086 0.0608,0.1873 0.0734,0.2258 z"
       id="use1687"
       inkscape:connector-curvature="0"
       sodipodi:nodetypes="cccccscccc" />
    <path
       inkscape:transform-center-y="-4.1426774"
       inkscape:transform-center-x="13.229842"
       inkscape:tile-y0="-61.925932"
       inkscape:tile-x0="-141.3456"
       style="fill:#216778;stroke-width:0"
       d="m -125.97213,1251.2324 c 0,0 0,0 0,0 0,0 0,0 0,0 0,0 0,0 0,0 0,0 0,0 0,0 0,0 0,0 0,0 0,0 0,0 0,0 0,0 0,0 0,0 0,0 0,0 0,0 0,0 0,0 0,0 z"
       id="use1689"
       inkscape:connector-curvature="0"
       sodipodi:nodetypes="cccccscccc" />
    <path
       inkscape:transform-center-y="-4.1426774"
       inkscape:transform-center-x="13.229842"
       inkscape:tile-y0="-61.925932"
       inkscape:tile-x0="-141.3456"
       style="fill:#216778;stroke-width:0"
       d="m -464.11373,1250.1657 c 0.0467,-0.1437 -0.17344,0.5338 -0.20608,0.6343 -0.0103,0.032 -0.0678,0.2086 -0.12768,0.3929 -0.25612,0.7883 -0.40975,1.2611 -0.18495,0.5692 0.19742,-0.6075 0.26817,-0.8253 0.0135,-0.042 -0.15163,0.4667 -0.3268,1.0058 -0.47823,1.4719 -0.23124,0.7116 -0.39524,1.2164 -0.31665,0.9745 0.17252,-0.531 0.54955,-1.6913 0.88943,-2.7374 -0.002,0.01 0.26684,-0.8212 0.32838,-1.0106 0.0312,-0.096 0.0682,-0.21 0.0822,-0.2531 z"
       id="use1691"
       inkscape:connector-curvature="0"
       sodipodi:nodetypes="cccccscccc" />
    <path
       inkscape:transform-center-y="-4.1426774"
       inkscape:transform-center-x="13.229842"
       inkscape:tile-y0="-61.925932"
       inkscape:tile-x0="-141.3456"
       style="fill:#216778;stroke-width:0"
       d="m -793.43733,1139.4422 c 0.17847,-0.2457 -0.66283,0.9123 -0.7876,1.084 -0.0395,0.054 -0.25903,0.3565 -0.48795,0.6716 -0.97887,1.3473 -1.566,2.1554 -0.70684,0.9729 0.75448,-1.0385 1.0249,-1.4107 0.0517,-0.071 -0.57949,0.7976 -1.24894,1.719 -1.82768,2.5156 -0.88377,1.2164 -1.51055,2.079 -1.21018,1.6656 0.65933,-0.9075 2.10029,-2.8908 3.39922,-4.6786 -0.007,0.01 1.01985,-1.4037 1.25501,-1.7274 0.11931,-0.1642 0.26073,-0.3588 0.31433,-0.4326 z"
       id="use1693"
       inkscape:connector-curvature="0"
       sodipodi:nodetypes="cccccscccc" />
    <path
       inkscape:transform-center-y="-4.1426774"
       inkscape:transform-center-x="13.229842"
       inkscape:tile-y0="-61.925932"
       inkscape:tile-x0="-141.3456"
       style="fill:#216778;stroke-width:0"
       d="m -1077.1669,923.12078 c 0.3566,-0.25909 -1.3245,0.96229 -1.5738,1.14343 -0.079,0.0573 -0.5176,0.37605 -0.975,0.7084 -1.956,1.42112 -3.1292,2.27351 -1.4124,1.02618 1.5076,-1.09534 2.0479,-1.48793 0.1032,-0.075 -1.1579,0.84129 -2.4956,1.8132 -3.6521,2.6534 -1.7659,1.28304 -3.0184,2.19299 -2.4182,1.75693 1.3175,-0.95721 4.1969,-3.04918 6.7924,-4.93495 -0.014,0.0103 2.0379,-1.48059 2.5078,-1.822 0.2384,-0.17321 0.521,-0.37853 0.6281,-0.45634 z"
       id="use1695"
       inkscape:connector-curvature="0"
       sodipodi:nodetypes="cccccscccc" />
    <path
       inkscape:transform-center-y="-4.1426774"
       inkscape:transform-center-x="13.229842"
       inkscape:tile-y0="-61.925932"
       inkscape:tile-x0="-141.3456"
       style="fill:#216778;stroke-width:0"
       d="m -1280.1335,618.32927 c 0.5191,-0.16867 -1.928,0.62644 -2.2909,0.74436 -0.1149,0.0373 -0.7534,0.24481 -1.4193,0.46116 -2.8472,0.92513 -4.555,1.48003 -2.056,0.66804 2.1946,-0.71306 2.9812,-0.96863 0.1503,-0.0488 -1.6856,0.54768 -3.6328,1.18038 -5.3162,1.72734 -2.5706,0.83525 -4.3937,1.42762 -3.5201,1.14374 1.9178,-0.62313 6.1092,-1.98498 9.8874,-3.2126 -0.021,0.007 2.9664,-0.96385 3.6505,-1.1861 0.347,-0.11276 0.7584,-0.24642 0.9143,-0.29708 z"
       id="use1697"
       inkscape:connector-curvature="0"
       sodipodi:nodetypes="cccccscccc" />
    <g
       id="g852"
       inkscape:export-xdpi="300.03677"
       inkscape:export-ydpi="300.03677">
      <g
         id="g858"
         inkscape:export-xdpi="300"
         inkscape:export-ydpi="300">
        <path
           sodipodi:nodetypes="ccsccsccccscccccccscccccccscccccccccccccccccccscscccccccccccccccccccccccccccccccscccccscccccccccccsscccccscccsccscscccccccccccccccccccsccccccccccccccccccscscccccsccccccccccccsccscccccccscccccsccccccccccccccccccccsccsccccccssscscsscscccccccccsccscccsccccccccccsscccccccccccsscccccscsccccccccccscccccccccccccccccccccccccsccccccccccccccccccccccccccc"
           inkscape:connector-curvature="0"
           id="path2276"
           d="m 141.97361,274.54389 c 0.88306,-1.8989 0.68776,-3.58993 -0.73811,-6.38775 -3.4941,-6.85614 -5.45211,-9.04811 -7.18552,-8.04514 -0.80814,0.46742 -0.69505,0.86886 1.28893,4.5717 2.15689,4.02561 2.16908,4.08371 1.5177,6.99566 -0.74304,3.31929 -0.4753,4.1332 1.53626,4.67024 1.69006,0.45148 2.78938,-0.10246 3.57994,-1.80631 z m -11.79319,4.32479 c -0.66567,-3.23445 -0.4726,-7.29817 -1.68837,-10.05842 -1.62695,-3.62586 -2.81118,-4.74921 -4.17398,-3.9608 -1.15514,0.66849 -1.10724,1.13499 0.74097,7.22266 0.73634,2.4259 0.68233,2.95454 -0.51371,5.03052 -0.73507,1.2759 -1.36221,2.61538 -1.3937,2.97663 -0.10288,1.17804 0.98299,2.52797 2.2526,2.79984 3.26617,1.81124 4.24393,-2.22406 4.77603,-4.01043 z m 22.84278,-13.09602 c 0.0578,-3.48583 -7.03676,-13.58338 -10.72565,-11.92157 -0.77585,0.44887 -0.93948,0.87257 -0.57861,1.49624 0.54724,0.94652 4.37784,4.92849 5.12796,5.33115 0.25509,0.1366 0.50684,1.47511 0.56064,2.97384 0.11637,3.24837 0.60272,4.2336 2.2658,4.58937 1.78886,0.38368 3.07879,-0.5673 3.35075,-2.46945 z m -38.68117,18.9039 c 1.36398,-4.16444 2.24274,-10.42946 1.40985,-14.03777 -0.73621,-3.12728 -1.63597,-4.05462 -3.10809,-3.20288 -1.08638,0.62832 -1.29167,1.99731 -1.17357,7.82197 0.0447,2.20184 -0.20491,2.88037 -1.48199,4.03024 -2.85904,2.57414 -3.24048,3.54857 -2.21647,5.66204 0.75514,1.56088 1.1944,1.94068 2.35506,2.04124 1.70769,0.14799 2.86949,-0.4901 4.21496,-2.31467 z m 47.52585,-28.41833 c -0.57954,-3.84764 -3.32903,-4.61859 -5.57923,-6.59258 0,0 -6.4023,-3.77663 -7.73798,-3.00391 -1.30554,0.75531 -0.58227,2.10225 1.90847,3.55414 1.31747,0.76808 2.86574,1.56513 3.44063,1.77139 0.87143,0.31243 1.21135,0.87501 2.04571,3.38494 0.8143,2.45039 1.18411,3.07816 1.98841,3.37596 1.4327,0.52864 3.97952,-1.08326 3.9331,-2.48919 z m 5.06285,-11.63318 c 1.05952,-2.27853 -2.02627,-6.03202 -4.74199,-5.76782 -0.73204,0.0713 -1.7461,-0.2981 -2.25328,-0.82075 -1.08305,-1.11618 -6.6565,-1.55346 -7.44039,-0.58383 -0.95854,1.186 0.32212,2.13623 4.17583,3.09941 3.62758,0.90642 3.89409,1.07216 5.10848,3.17108 1.0316,1.78274 1.55265,2.2381 2.67402,2.33529 0.76623,0.0632 1.50434,0.0531 1.64031,-0.0211 0.13619,-0.0776 0.51279,-0.71357 0.83702,-1.41095 z M 98.613476,283.0551 c 1.188282,-4.77594 4.070384,-9.02965 3.791894,-13.59574 -0.14673,-2.05461 -0.34532,-2.53552 -1.15801,-2.83543 -1.706381,-0.62991 -2.393302,0.35291 -3.822293,5.46944 l -1.393321,4.98827 -2.766362,1.45783 c -3.10725,1.63749 -3.639685,2.59236 -2.809832,5.03815 1.069889,3.15317 5.736625,2.85428 8.157839,-0.52244 z M 262.88404,185.95825 c 1.33791,-1.36545 2.78407,-3.03275 3.21333,-3.70542 3.62653,-5.68388 1.08557,-12.63712 -5.23455,-14.3244 -4.62191,-1.23399 -8.65022,0.57215 -10.68922,4.79268 -1.53917,3.18576 -4.2008,5.33586 -8.8715,7.16646 -5.98327,2.34498 -17.20308,4.40212 -23.48702,4.30624 -0.82568,-0.0127 -3.15561,0.12691 -5.17746,0.31074 -2.02176,0.18383 -4.08758,0.31707 -4.59072,0.29598 -3.8806,-0.004 -17.41533,2.9588 -16.97978,5.11767 7.4508,0.16697 14.10873,0.62056 21.0817,2.39516 4.99481,1.29024 11.59628,2.38884 13.79989,2.29646 0.85284,-0.0337 2.81603,0.0974 4.36283,0.29556 4.18249,0.53627 14.13416,-0.31833 18.72956,-1.60823 5.8718,-1.64802 10.85859,-4.29051 13.84281,-7.33536 z M 88.774637,269.5191 c 0.751894,-1.97112 1.214929,-4.11612 1.028779,-4.76678 -0.363867,-1.27244 -1.840587,-2.08404 -2.791111,-1.53415 -0.572196,0.32971 -2.920257,4.28027 -4.47696,7.52843 -0.748648,1.5621 -0.893099,1.65397 -3.518847,2.23919 -3.646052,0.81194 -4.441754,1.33805 -4.884044,3.22839 -0.494194,2.1133 0.616382,3.91678 2.764717,4.49045 1.405633,0.37525 2.174645,0.20238 4.123254,-0.92459 2.827498,-2.88623 6.505342,-7.02264 7.754212,-10.26094 z m 81.386593,-49.16961 c 0.12396,-0.46464 -0.0337,-1.29103 -0.34827,-1.83637 -0.7731,-1.33632 -4.24506,-2.53008 -5.40543,-1.85876 -0.51486,0.29599 -1.64968,0.37357 -2.52292,0.16992 -1.10943,-0.2593 -2.37736,0.002 -4.20812,0.86801 -2.33849,1.10627 -2.55403,1.31494 -1.99761,1.95649 0.39718,0.45743 1.91096,0.53796 4.17605,0.22558 3.02937,-0.42121 3.80981,-0.30737 5.29007,0.77386 2.44529,1.78577 4.49244,1.66502 5.01597,-0.29599 z m -99.390059,48.17663 c 0.523665,-0.50958 1.410734,-1.68037 1.971419,-2.60129 0.560558,-0.92118 1.377974,-1.73164 1.816006,-1.8015 0.438243,-0.07 0.584422,-0.23991 0.325499,-0.37989 -0.571984,-0.30779 0.242859,-1.38632 1.669573,-2.21209 1.170321,-0.67701 2.725127,-3.33189 3.990609,-6.81393 0.462276,-1.27206 1.330414,-3.20237 1.929088,-4.28972 2.419444,-4.1515 -1.778355,-1.24516 -2.817885,0.32719 -2.680349,4.18806 -7.673133,9.84963 -9.741358,11.04618 -5.726842,6.3417 -5.442242,-0.39802 -9.140829,3.57146 -1.647312,1.78148 -1.698329,1.98926 -0.901784,3.67384 1.685553,3.56497 6.964877,3.31364 10.900589,-0.51877 z m 97.280809,-58.54394 c 0.18931,-0.70851 -0.98911,-2.53269 -2.06831,-3.20153 -1.15536,-0.71614 -4.31809,-0.63708 -4.72231,0.11342 -0.1598,0.29725 -0.95988,0.50541 -1.77945,0.45869 -2.05933,-0.11468 -6.50576,2.46427 -6.31641,3.65934 0.17962,1.12579 1.19975,1.13195 3.93786,0.0253 3.40851,-1.3792 3.76491,-1.39265 6.11234,-0.22473 1.69525,0.84338 2.48113,0.9264 3.45211,0.36471 0.69147,-0.40055 1.31363,-0.93864 1.38261,-1.19655 z m -3.92956,-9.52447 c 0.42079,-2.47763 -3.48183,-3.81104 -6.63622,-2.26745 -0.90363,0.44411 -2.46936,1.1177 -3.47769,1.50021 -2.72652,1.03405 -4.71371,2.9063 -4.13936,3.89899 0.53125,0.91839 2.35835,0.46889 5.514,-1.35698 1.6735,-0.96832 2.21926,-1.00588 4.08055,-0.27743 2.33427,0.91291 4.36008,0.26099 4.65876,-1.4973 z m 85.09382,-50.22255 c 2.27972,-1.9137 3.43558,-4.08716 3.66448,-6.88949 0.38453,-4.70641 -1.76819,-8.4244 -6.11546,-10.56299 -2.1095,-1.03768 -3.48014,-1.21379 -7.4632,-0.95908 -6.41765,0.41024 -9.83619,1.42405 -16.66525,4.94239 -5.67347,2.92313 -9.37395,5.53053 -15.30786,10.78401 -7.93163,4.33728 -13.31308,16.34254 -19.0338,21.08753 -0.68566,0.52763 -2.16364,1.92112 -3.28459,3.09582 -1.12112,1.17446 -3.72271,3.34168 -5.78132,4.81617 -4.62196,3.3103 -4.83922,3.57677 -4.04091,4.95652 13.4477,-4.36203 24.6533,-11.47595 31.59798,-16.48796 12.56856,-9.07434 25.93135,-14.37727 32.08809,-12.73342 4.3132,1.15152 7.21402,0.57641 10.34205,-2.04946 z M 64.521844,253.02183 c 1.138403,-0.90162 2.362228,-2.1125 2.720024,-2.68988 0.357121,-0.57755 0.974473,-1.23723 1.370385,-1.46635 0.396754,-0.22725 1.321348,-1.32198 2.056335,-2.42914 0.735029,-1.1072 2.120761,-2.8565 3.079085,-3.88777 1.123225,-1.20877 1.596885,-2.127 1.332691,-2.58371 -0.422179,-0.72921 -0.380311,-0.75405 -5.993144,3.53061 -8.651611,6.6051 -12.826473,8.35394 -17.138702,7.17961 -3.273541,-0.89145 -5.134872,-0.0662 -5.844224,2.59088 -0.347002,1.29926 -0.217562,2.12763 0.484917,3.10637 0.939816,1.30945 2.156389,1.52495 6.838894,1.21092 0.630338,-0.0422 0.956765,0.0569 0.725542,0.22515 -0.23021,0.16781 0.247076,0.29851 1.063142,0.29514 1.599077,-0.008 5.794262,-2.2997 9.304464,-5.082 z m 92.583416,-61.57627 c 0.22937,-1.35183 -1.0876,-2.36514 -2.8517,-2.19336 -2.99117,0.28881 -9.71273,6.15657 -8.82127,7.6975 0.46678,0.80679 1.6417,0.20871 4.081,-2.06726 1.44379,-1.34791 1.98386,-1.57264 3.74586,-1.55792 2.43099,0.0211 3.62155,-0.56119 3.84531,-1.88052 z m -15.88207,-1.25696 c 1.55615,-2.21348 2.71501,-2.9927 5.40046,-3.63134 1.56842,-0.37314 2.08391,-0.68696 2.36147,-1.43911 1.28492,-3.48158 -5.07513,-3.56084 -6.54093,-0.0818 -0.26774,0.63582 -0.97671,1.43899 -1.57538,1.7854 -1.54713,0.89495 -3.11657,4.05469 -2.52338,5.07993 0.60352,1.04354 1.18128,0.69945 2.87738,-1.7141 z m -77.359807,44.79211 c 0.490694,-0.56659 2.141083,-1.77941 3.667724,-2.69502 2.064852,-1.23926 2.741232,-1.88056 2.641475,-2.50613 -0.199853,-1.24832 -0.632615,-1.20397 -4.421305,0.45241 -6.083627,2.6596 -7.705514,3.26502 -11.878773,4.43534 -5.041397,1.41386 -9.443939,1.27514 -11.274787,-0.35459 -2.481381,-2.20955 -6.197551,-1.33589 -7.427891,1.74673 -1.991931,4.99038 5.2925,8.70672 13.516071,6.89565 2.868818,-0.63194 13.786146,-6.36738 15.177528,-7.97371 z M 165.26496,169.10069 c 8.82034,-8.51273 2.58969,-1.25077 10.88089,-11.36645 0.3411,-0.66398 1.0755,-1.47777 1.63239,-1.80829 0.55832,-0.32803 2.15441,-2.32605 3.54988,-4.43471 1.39547,-2.10862 2.69131,-3.92307 2.87957,-4.03189 0.18847,-0.10878 1.71106,-1.88047 3.38392,-3.93651 8.86028,-10.89043 19.86653,-18.15867 25.73344,-16.99362 5.6014,1.11243 10.55725,-1.5465 12.17256,-6.53102 0.95989,-5.16746 0.64974,-10.47221 -5.719,-13.43235 -8.20847,-2.52465 -22.07385,4.23161 -28.06855,10.04754 -3.35648,3.39076 -9.06527,10.78844 -11.16896,14.47273 -1.0569,1.85138 -2.56887,4.46494 -3.35976,5.80822 -0.7909,1.34323 -1.76811,3.41921 -2.17144,4.61336 -1.93997,6.94944 -14.43609,27.6427 -14.45595,29.1082 0.43268,0.7473 1.76769,0.92776 2.47468,0.33099 0.14841,-0.12186 1.1532,-0.95673 2.23565,-1.85096 z m -33.49958,17.28513 c 1.1185,-2.54977 1.47689,-2.93678 3.82992,-4.13569 2.45478,-1.25102 2.58182,-1.40158 2.3336,-2.77214 -0.37862,-2.09162 -1.75613,-2.44225 -4.15121,-1.05631 -1.43974,0.83302 -2.07088,1.57559 -2.4872,2.92709 -0.30694,0.99606 -0.89065,2.00342 -1.29731,2.23873 -2.98435,4.75039 -0.48661,7.84495 1.77211,2.79849 z m -65.136689,31.76913 c -0.468095,-0.80857 -3.661316,-0.95483 -5.784142,-0.26521 -0.837697,0.27237 -1.841051,0.44668 -2.229078,0.38748 -0.388322,-0.0594 -2.160268,0.1189 -3.938074,0.39338 -5.380009,0.83715 -9.483699,0.74258 -13.290393,-0.3061 -2.867498,-0.79022 -3.897167,-1.35728 -4.957041,-2.72901 -2.587983,-3.34914 -7.164582,-2.97186 -8.747734,0.72145 -1.53173,3.57341 0.7984,6.6172 6.72168,8.78093 3.068527,1.12082 4.69297,1.31928 8.472633,1.03514 2.571947,-0.19352 5.713055,-0.64332 6.980224,-0.99922 1.267127,-0.35628 3.082711,-0.82602 4.0345,-1.04417 0.951874,-0.2184 3.023262,-1.03616 4.603112,-1.8179 1.579092,-0.78318 3.79025,-1.68682 4.912041,-2.01118 2.864729,-0.82846 3.673332,-1.36726 3.221976,-2.14724 z m -0.60795,-12.368 c -0.552083,-0.95423 -5.58353,-2.19606 -6.574447,-1.62273 -0.358386,0.20829 -1.064617,0.11975 -1.56893,-0.18889 -0.504186,-0.31285 -2.513594,-0.68974 -4.46507,-0.8393 -8.105051,-0.61958 -16.280615,-4.27466 -17.669994,-7.90022 -1.453277,-3.79299 -4.645406,-5.02525 -7.995836,-3.08684 -1.432229,0.8288 -1.954221,1.51155 -2.383209,3.11884 -0.302141,1.13179 -0.299611,2.53653 0.0059,3.12172 3.320136,6.36198 9.385944,9.50077 19.960263,10.3286 1.53208,0.12227 3.088994,0.043 3.459565,-0.17202 0.370613,-0.21419 0.918396,-0.25846 1.217417,-0.0999 0.88437,0.47509 6.104665,0.0295 7.221439,-0.61786 0.567262,-0.32718 1.727801,-0.5356 2.580422,-0.46118 2.228783,0.19395 5.453584,-0.0211 6.123513,-0.40814 0.316645,-0.18256 0.355856,-0.71066 0.08981,-1.17247 z m 88.974929,-53.67532 c 1.24432,-7.23101 6.25915,-12.47024 7.73069,-19.75497 0.18383,-1.00681 0.6273,-1.99979 0.98497,-2.20677 0.71509,-0.41404 5.15309,-7.44714 5.74232,-9.10069 0.49588,-1.39176 6.15513,-6.71143 8.71595,-8.19305 1.29327,-0.74818 2.51954,-1.08911 3.30803,-0.92033 0.71724,0.15389 2.3371,-0.24539 3.7878,-0.93041 6.59456,-3.11843 7.64809,-11.617998 2.0076,-16.193113 -2.43804,-1.977449 -5.78216,-2.630302 -9.22963,-1.801671 -3.26932,0.785583 -9.90119,4.988525 -12.76499,8.094174 -2.57457,2.78963 -6.16269,8.36106 -6.00833,9.32951 0.0713,0.4468 -0.61583,1.90054 -1.52698,3.23032 -1.98718,2.90061 -4.47388,10.20528 -4.20197,12.34345 0.1071,0.84276 -0.22009,2.38576 -0.72718,3.42883 -1.12445,4.95623 -4.55594,25.76219 -4.2715,26.59095 1.44842,2.50318 3.85273,1.04413 6.45335,-3.91577 z m -87.773618,40.65701 c -0.191842,-1.20363 -3.194992,-3.0185 -5.406488,-3.2676 -0.968992,-0.1054 -1.906909,-0.45118 -2.085723,-0.76003 -0.178771,-0.30905 -1.961384,-1.16935 -3.961348,-1.91171 -4.970352,-1.84506 -10.785948,-5.4815 -13.330953,-8.33569 -1.850749,-2.07619 -2.157064,-2.665 -2.455958,-4.72867 -0.430181,-2.96841 -1.74448,-4.4536 -4.348834,-4.91415 -4.59129,-0.81164 -7.803746,3.77634 -5.935356,8.47748 0.925037,2.32799 4.348527,6.4383 7.025638,8.4354 2.363738,1.76342 11.016643,5.27607 12.383992,5.02718 0.492127,-0.0902 1.825999,0.22642 2.964781,0.69966 1.13853,0.47433 2.353838,0.69818 2.700588,0.49782 0.345737,-0.20196 1.077772,-0.0869 1.623784,0.25213 0.546223,0.33815 1.26894,0.45621 1.605444,0.2631 0.337304,-0.19268 2.053426,0.008 3.814831,0.45228 4.240383,1.06762 5.597275,1.02136 5.405096,-0.18383 z m 68.498388,-44.33182 c -0.57139,-6.93094 2.98953,-12.92762 2.37467,-19.9799 -0.0953,-0.84816 0.0295,-1.90147 0.27195,-2.34081 0.24413,-0.43896 1.1995,-3.42698 2.12371,-6.63921 0.9243,-3.21232 2.36261,-6.97643 3.19622,-8.36499 2.21204,-3.68408 4.87578,-6.63373 6.16774,-6.82962 4.1596,-0.63059 7.64492,-5.408297 7.16608,-9.823531 -0.22262,-2.054269 -0.577,-2.860048 -2.06667,-4.702026 -9.53168,-9.239786 -21.18429,6.219012 -22.03008,7.866197 -1.62855,2.86945 -3.93778,10.20005 -3.46859,11.01097 0.18932,0.33014 -0.0514,1.55139 -0.53623,2.71648 -1.05133,2.52384 -1.61349,10.67194 -0.88867,12.88028 0.28249,0.85996 0.33688,2.33533 0.12143,3.27843 0.34152,2.77661 2.19037,24.7278 2.78669,25.67352 0.66836,0.89824 1.09788,0.98206 2.27828,0.44415 1.26076,-0.57384 1.59461,-1.26553 2.50314,-5.19015 z m -61.221421,31.18052 c -0.177506,-1.11677 -4.044493,-4.67723 -5.313138,-4.89264 -0.528303,-0.0915 -1.516521,-0.8197 -2.194925,-1.62197 -0.678657,-0.80228 -2.690469,-2.49083 -4.471184,-3.75214 -7.614821,-5.39443 -13.203031,-13.53068 -12.401384,-18.05608 0.704039,-3.97387 -2.548505,-7.62204 -6.507281,-7.2989 -2.357591,0.19142 -4.352605,1.56063 -5.447238,3.73582 -1.67161,3.3214 0.805568,11.44331 4.782748,15.68129 8.283189,8.59891 15.966862,10.28172 24.425113,14.84807 0.56975,0.94808 5.852657,3.05134 6.588445,2.6257 0.373565,-0.21587 0.615708,-0.78705 0.538844,-1.26915 z m 43.347191,-27.54632 c -1.53883,-6.97554 -0.47712,-14.71993 -2.74646,-21.52083 -0.32171,-0.91127 -0.43858,-2.05166 -0.25973,-2.53434 0.17793,-0.48281 0.32128,-3.20026 0.3196,-6.03932 -0.008,-7.88727 2.21592,-14.42221 5.56944,-16.36243 3.84755,-2.22604 4.79728,-7.521389 2.04099,-11.379859 -1.76541,-2.471178 -4.97174,-3.939381 -7.80282,-3.573026 -3.55026,0.459451 -7.65952,4.186541 -8.88385,8.055931 -0.24665,0.778878 -0.91506,2.169754 -1.48587,3.090424 -1.32202,2.13249 -2.34827,9.89728 -1.66734,12.61625 0.28671,1.1438 0.39381,2.70459 0.23823,3.46846 -0.38664,1.89987 1.06094,8.86664 2.28009,10.97366 0.54787,0.94681 0.96764,2.33107 0.93336,3.07609 1.70849,4.85289 6.92693,20.42236 8.4072,21.9934 0.91245,0.73748 2.74047,-0.37651 3.05914,-1.86428 z m -16.93506,5.5533 c 0.008,-0.29514 -0.44128,-2.02952 -0.99922,-3.85564 -3.4774,-4.33567 -3.766807,-9.22111 -5.746743,-13.24967 -1.048849,-2.11789 -1.866518,-4.14168 -1.819506,-4.49631 0.04933,-0.35501 -0.477665,-2.78116 -1.166104,-5.39215 -1.470311,-5.57577 -1.405422,-12.69096 0.133657,-14.60909 3.089204,-3.85088 3.537018,-6.50125 1.64866,-9.75898 -2.065695,-3.56383 -5.79835,-4.83686 -9.59269,-3.27198 -2.325631,0.95879 -5.39776,5.15473 -5.594577,7.64037 -0.06873,0.86392 -0.338148,2.70295 -0.599433,4.08641 -0.656015,3.47491 -0.0936,8.38986 1.365452,11.92384 0.673892,1.63302 1.41689,3.79421 1.650853,4.80246 5.331563,10.78574 2.053806,5.78094 8.374346,14.63489 1.337076,1.85277 2.763158,3.54596 3.169652,3.76221 0.406452,0.21672 1.904591,2.31859 3.329281,4.6718 1.424564,2.35324 2.840948,4.41321 3.147727,4.57764 0.678109,0.36429 2.675835,-0.72111 2.697725,-1.46491 z m -15.148981,8.89426 c 0.207864,-0.77841 -2.764506,-5.54537 -4.094161,-6.5709 -0.683422,-0.52607 -2.13341,-2.37712 -3.221892,-4.11318 -1.08806,-1.7364 -2.569165,-3.69214 -3.290407,-4.34638 -12.109362,-13.99186 -6.8515,-18.74904 -6.647009,-24.72165 0.05102,-2.21301 -0.746624,-3.89663 -2.538681,-5.35775 -4.191685,-3.41832 -10.032831,-1.18925 -11.524603,4.39863 -0.104143,4.98856 1.191275,14.44313 4.046939,18.05604 0.859325,1.05129 1.819758,2.45642 2.134843,3.12239 7.146304,8.09699 13.305909,12.59373 20.476246,18.93615 2.095337,1.84004 2.703159,2.12312 3.530736,1.64432 0.54968,-0.31833 1.056017,-0.7895 1.124996,-1.04754 z"
           style="fill:#216778;stroke-width:0.51522613"
           inkscape:export-xdpi="300"
           inkscape:export-ydpi="300" />
      </g>
    </g>
    <g
       id="g934"
       transform="matrix(2.3001271,-2.3764667,2.3764667,2.3001271,-120.95666,402.2231)" />
  </g>
  <style
     id="style894"
     type="text/css">
	.st0{fill:#B4E6DD;}
	.st1{fill:#80D4C4;}
	.st2{fill:#D2F0EA;}
	.st3{fill:#FFFFFF;}
	.st4{fill:#FBD872;}
	.st5{fill:#DB7767;}
	.st6{fill:#F38E7A;}
	.st7{fill:#F6AF62;}
	.st8{fill:#32A48E;}
	.st9{fill:#A38FD8;}
	.st10{fill:#7C64BD;}
	.st11{fill:#EAA157;}
	.st12{fill:#9681CF;}
	.st13{fill:#F9C46A;}
	.st14{fill:#CE6B61;}
</style>
</svg>
