<?xml version="1.0" encoding="UTF-8" standalone="no"?>
<!-- Created with Inkscape (http://www.inkscape.org/) -->

<svg
   xmlns:dc="http://purl.org/dc/elements/1.1/"
   xmlns:cc="http://creativecommons.org/ns#"
   xmlns:rdf="http://www.w3.org/1999/02/22-rdf-syntax-ns#"
   xmlns:svg="http://www.w3.org/2000/svg"
   xmlns="http://www.w3.org/2000/svg"
   xmlns:sodipodi="http://sodipodi.sourceforge.net/DTD/sodipodi-0.dtd"
   xmlns:inkscape="http://www.inkscape.org/namespaces/inkscape"
   width="11in"
   height="8.5in"
   viewBox="0 0 279.4 215.9"
   version="1.1"
   id="svg8"
   inkscape:version="0.92.4 (5da689c313, 2019-01-14)"
   sodipodi:docname="Logo_thalassomics_23062025.svg"
   inkscape:export-filename="C:\Users\migue\OneDrive\Documentos\proyectos\2024_Servicios_bioinfomraticos\hero\hero\static\faviconlog.png"
   inkscape:export-xdpi="12.300238"
   inkscape:export-ydpi="12.300238">
  <defs
     id="defs2" />
  <sodipodi:namedview
     id="base"
     pagecolor="#ffffff"
     bordercolor="#666666"
     borderopacity="1.0"
     inkscape:pageopacity="0.0"
     inkscape:pageshadow="2"
     inkscape:zoom="0.49497475"
     inkscape:cx="593.59912"
     inkscape:cy="441.63039"
     inkscape:document-units="mm"
     inkscape:current-layer="layer1"
     showgrid="false"
     inkscape:window-width="1920"
     inkscape:window-height="1001"
     inkscape:window-x="-9"
     inkscape:window-y="-9"
     inkscape:window-maximized="1"
     units="in" />
  <metadata
     id="metadata5">
    <rdf:RDF>
      <cc:Work
         rdf:about="">
        <dc:format>image/svg+xml</dc:format>
        <dc:type
           rdf:resource="http://purl.org/dc/dcmitype/StillImage" />
        <dc:title />
      </cc:Work>
    </rdf:RDF>
  </metadata>
  <g
     inkscape:label="Layer 1"
     inkscape:groupmode="layer"
     id="layer1"
     transform="translate(0,-81.1)">
    <path
       inkscape:transform-center-y="-4.1426774"
       inkscape:transform-center-x="13.229842"
       inkscape:tile-y0="-61.925932"
       inkscape:tile-x0="-141.3456"
       style="fill:#216778;stroke-width:0"
       d="m -670.26646,-343.93076 c 0.11953,0.0868 -0.44394,-0.32254 -0.52751,-0.38326 -0.0265,-0.0192 -0.17348,-0.12604 -0.3268,-0.23744 -0.65562,-0.47633 -1.04885,-0.76203 -0.47342,-0.34395 0.50532,0.36713 0.68644,0.49872 0.0346,0.0251 -0.38812,-0.28199 -0.8365,-0.60775 -1.22411,-0.88937 -0.59192,-0.43005 -1.01171,-0.73504 -0.81053,-0.58888 0.44159,0.32083 1.40669,1.02202 2.27666,1.65409 -0.005,-0.003 0.68305,0.49627 0.84056,0.6107 0.0799,0.0581 0.17462,0.12687 0.21052,0.15296 z"
       id="use1663"
       inkscape:connector-curvature="0"
       sodipodi:nodetypes="cccccscccc" />
    <path
       inkscape:transform-center-y="-4.1426774"
       inkscape:transform-center-x="13.229842"
       inkscape:tile-y0="-61.925932"
       inkscape:tile-x0="-141.3456"
       style="fill:#216778;stroke-width:0"
       d="m -537.79382,-504.01951 c 0.069,0.0949 -0.25612,-0.35253 -0.30434,-0.41889 -0.0153,-0.021 -0.10009,-0.13776 -0.18855,-0.25951 -0.37825,-0.52062 -0.60512,-0.83289 -0.27313,-0.37594 0.29154,0.40127 0.39603,0.54509 0.02,0.0275 -0.22393,-0.3082 -0.48261,-0.66425 -0.70624,-0.97205 -0.3415,-0.47004 -0.5837,-0.80339 -0.46763,-0.64364 0.25477,0.35066 0.81158,1.11704 1.3135,1.80788 -0.003,-0.004 0.39408,0.54241 0.48495,0.66748 0.0461,0.0635 0.10075,0.13867 0.12146,0.16718 z"
       id="use1665"
       inkscape:connector-curvature="0"
       sodipodi:nodetypes="cccccscccc" />
    <path
       inkscape:transform-center-y="-4.1426774"
       inkscape:transform-center-x="13.229842"
       inkscape:tile-y0="-61.925932"
       inkscape:tile-x0="-141.3456"
       style="fill:#216778;stroke-width:0"
       d="m -350.6362,-617.3583 c 0.0207,0.0639 -0.0771,-0.23723 -0.0916,-0.28189 -0.005,-0.0141 -0.0301,-0.0927 -0.0567,-0.17464 -0.11383,-0.35035 -0.18211,-0.56048 -0.0822,-0.25298 0.0877,0.27003 0.11919,0.36681 0.006,0.0185 -0.0674,-0.2074 -0.14524,-0.44701 -0.21254,-0.65414 -0.10278,-0.31631 -0.17566,-0.54064 -0.14073,-0.43313 0.0767,0.23598 0.24424,0.75171 0.39529,1.2166 -8.2e-4,-0.003 0.1186,0.36501 0.14595,0.44918 0.0139,0.0427 0.0303,0.0933 0.0365,0.1125 z"
       id="use1667"
       inkscape:connector-curvature="0"
       sodipodi:nodetypes="cccccscccc" />
    <path
       inkscape:transform-center-y="-4.1426774"
       inkscape:transform-center-x="13.229842"
       inkscape:tile-y0="-61.925932"
       inkscape:tile-x0="-141.3456"
       style="fill:#216778;stroke-width:0"
       d="m -125.97213,-666.80381 c 0,0 0,0 0,0 0,0 0,0 0,0 0,0 0,0 0,0 0,0 0,0 0,0 0,0 0,0 0,0 0,0 0,0 0,0 0,0 0,0 0,0 0,0 0,0 0,0 0,0 0,0 0,0 z"
       id="use1669"
       inkscape:connector-curvature="0"
       sodipodi:nodetypes="cccccscccc" />
    <path
       inkscape:transform-center-y="-4.1426774"
       inkscape:transform-center-x="13.229842"
       inkscape:tile-y0="-61.925932"
       inkscape:tile-x0="-141.3456"
       style="fill:#216778;stroke-width:0"
       d="m 113.96687,-641.80536 c 0.0244,-0.075 -0.0905,0.27841 -0.10749,0.33082 -0.005,0.0166 -0.0354,0.10881 -0.0666,0.20496 -0.1336,0.41117 -0.21373,0.65779 -0.0965,0.29691 0.10297,-0.31692 0.13988,-0.4305 0.007,-0.0217 -0.0791,0.24342 -0.17045,0.52461 -0.24944,0.76771 -0.12062,0.37122 -0.20616,0.6345 -0.16517,0.50833 0.09,-0.27695 0.28665,-0.88222 0.46393,-1.42782 -9.7e-4,0.003 0.13919,-0.42838 0.17129,-0.52716 0.0163,-0.0501 0.0356,-0.10952 0.0429,-0.13203 z"
       id="use1671"
       inkscape:connector-curvature="0"
       sodipodi:nodetypes="cccccscccc" />
    <path
       inkscape:transform-center-y="-4.1426774"
       inkscape:transform-center-x="13.229842"
       inkscape:tile-y0="-61.925932"
       inkscape:tile-x0="-141.3456"
       style="fill:#216778;stroke-width:0"
       d="m 344.51941,-539.64283 c 0.095,-0.13081 -0.35296,0.48581 -0.4194,0.57726 -0.021,0.0289 -0.13793,0.18984 -0.25983,0.35763 -0.52126,0.71745 -0.83391,1.14777 -0.3764,0.51806 0.40176,-0.55298 0.54576,-0.75117 0.0275,-0.0379 -0.30858,0.42473 -0.66507,0.91539 -0.97325,1.33957 -0.47061,0.64774 -0.80437,1.10712 -0.64443,0.88698 0.3511,-0.48325 1.11842,-1.53937 1.81011,-2.4914 -0.004,0.005 0.54307,-0.74747 0.6683,-0.91983 0.0635,-0.0874 0.13884,-0.1911 0.16738,-0.23038 z"
       id="use1673"
       inkscape:connector-curvature="0"
       sodipodi:nodetypes="cccccscccc" />
    <path
       inkscape:transform-center-y="-4.1426774"
       inkscape:transform-center-x="13.229842"
       inkscape:tile-y0="-61.925932"
       inkscape:tile-x0="-141.3456"
       style="fill:#216778;stroke-width:0"
       d="m 541.32212,-365.60225 c 0.19362,-0.14067 -0.7191,0.52246 -0.85447,0.62081 -0.0429,0.0311 -0.28102,0.20418 -0.52937,0.38462 -1.06199,0.77157 -1.69897,1.23437 -0.76686,0.55715 0.81854,-0.5947 1.11191,-0.80785 0.0561,-0.0407 -0.62869,0.45677 -1.35498,0.98445 -1.98285,1.44063 -0.95881,0.69661 -1.6388,1.19065 -1.31294,0.9539 0.71531,-0.5197 2.27862,-1.65551 3.68783,-2.67936 -0.008,0.006 1.10643,-0.80387 1.36156,-0.98924 0.12944,-0.094 0.28287,-0.20551 0.34102,-0.24776 z"
       id="use1675"
       inkscape:connector-curvature="0"
       sodipodi:nodetypes="cccccscccc" />
    <path
       inkscape:transform-center-y="-4.1426774"
       inkscape:transform-center-x="13.229842"
       inkscape:tile-y0="-61.925932"
       inkscape:tile-x0="-141.3456"
       style="fill:#216778;stroke-width:0"
       d="m 682.72108,-132.2628 c 0.28703,-0.0933 -1.06603,0.34638 -1.2667,0.41158 -0.0635,0.0206 -0.4166,0.13536 -0.78477,0.25499 -1.57433,0.51153 -2.51861,0.81834 -1.13682,0.36937 1.21344,-0.39427 1.64835,-0.53558 0.0831,-0.027 -0.932,0.30282 -2.00868,0.65266 -2.93947,0.95509 -1.42137,0.46183 -2.42942,0.78937 -1.94634,0.6324 1.0604,-0.34454 3.37791,-1.09754 5.46698,-1.77632 -0.0114,0.004 1.64022,-0.53294 2.01843,-0.65583 0.19189,-0.0623 0.41934,-0.13625 0.50554,-0.16426 z"
       id="use1677"
       inkscape:connector-curvature="0"
       sodipodi:nodetypes="cccccscccc" />
    <path
       inkscape:transform-center-y="-4.1426774"
       inkscape:transform-center-x="13.229842"
       inkscape:tile-y0="-61.925932"
       inkscape:tile-x0="-141.3456"
       style="fill:#216778;stroke-width:0"
       d="m 751.64398,141.77977 c 0.33959,0 -1.26126,0 -1.49868,0 -0.0752,0 -0.49288,0 -0.92849,0 -1.86264,0 -2.97985,0 -1.345,0 1.43566,0 1.95021,0 0.0983,0 -1.10267,0 -2.37654,0 -3.47778,0 -1.68167,0 -2.87433,0 -2.30278,0 1.2546,0 3.99652,0 6.46816,0 -0.0135,0 1.94061,0 2.38809,0 0.22702,0 0.49612,0 0.59811,0 z"
       id="use1679"
       inkscape:connector-curvature="0"
       sodipodi:nodetypes="cccccscccc" />
    <path
       inkscape:transform-center-y="-4.1426774"
       inkscape:transform-center-x="13.229842"
       inkscape:tile-y0="-61.925932"
       inkscape:tile-x0="-141.3456"
       style="fill:#216778;stroke-width:0"
       d="m 736.93592,433.43778 c 0.32798,0.10657 -1.21814,-0.3958 -1.44745,-0.4703 -0.0726,-0.0236 -0.47603,-0.15468 -0.89674,-0.29137 -1.79896,-0.58452 -2.87799,-0.93512 -1.29902,-0.42208 1.38657,0.45053 1.88354,0.612 0.095,0.0308 -1.06498,-0.34603 -2.2953,-0.74578 -3.35889,-1.09136 -1.62418,-0.52773 -2.77607,-0.902 -2.22406,-0.72265 1.21171,0.39371 3.85989,1.25416 6.24704,2.02979 -0.013,-0.004 1.87426,0.60899 2.30645,0.74941 0.21926,0.0712 0.47916,0.15569 0.57767,0.1877 z"
       id="use1681"
       inkscape:connector-curvature="0"
       sodipodi:nodetypes="cccccscccc" />
    <path
       inkscape:transform-center-y="-4.1426774"
       inkscape:transform-center-x="13.229842"
       inkscape:tile-y0="-61.925932"
       inkscape:tile-x0="-141.3456"
       style="fill:#216778;stroke-width:0"
       d="m 634.32358,716.73131 c 0.25289,0.18373 -0.93924,-0.6824 -1.11604,-0.81086 -0.056,-0.0407 -0.36705,-0.26667 -0.69143,-0.50235 -1.38708,-1.00777 -2.21905,-1.61224 -1.00161,-0.72771 1.06912,0.77676 1.4523,1.05515 0.0732,0.0532 -0.82115,-0.5966 -1.76978,-1.28582 -2.58986,-1.88164 -1.25231,-0.90986 -2.14047,-1.55514 -1.71485,-1.24591 0.93429,0.6788 2.97615,2.1623 4.81675,3.49957 -0.01,-0.007 1.44514,1.04996 1.77837,1.29206 0.16906,0.12283 0.36946,0.26843 0.44541,0.32361 z"
       id="use1683"
       inkscape:connector-curvature="0"
       sodipodi:nodetypes="cccccscccc" />
    <path
       inkscape:transform-center-y="-4.1426774"
       inkscape:transform-center-x="13.229842"
       inkscape:tile-y0="-61.925932"
       inkscape:tile-x0="-141.3456"
       style="fill:#216778;stroke-width:0"
       d="m 447.17357,964.49369 c 0.14196,0.1954 -0.52726,-0.72571 -0.62652,-0.86232 -0.0314,-0.0432 -0.20604,-0.2836 -0.38814,-0.53424 -0.77867,-1.07174 -1.24572,-1.71458 -0.56228,-0.7739 0.60017,0.82606 0.81528,1.12213 0.0411,0.0566 -0.46097,-0.63447 -0.9935,-1.36743 -1.45387,-2.00107 -0.70301,-0.96762 -1.2016,-1.65386 -0.96267,-1.325 0.52448,0.72188 1.67073,2.29955 2.70398,3.72171 -0.006,-0.008 0.81126,1.1166 0.99833,1.37408 0.0949,0.13062 0.2074,0.28546 0.25004,0.34415 z"
       id="use1685"
       inkscape:connector-curvature="0"
       sodipodi:nodetypes="cccccscccc" />
    <path
       inkscape:transform-center-y="-4.1426774"
       inkscape:transform-center-x="13.229842"
       inkscape:tile-y0="-61.925932"
       inkscape:tile-x0="-141.3456"
       style="fill:#216778;stroke-width:0"
       d="m 187.07303,1150.3625 c 0.0417,0.1282 -0.1547,-0.4761 -0.18382,-0.5657 -0.009,-0.028 -0.0605,-0.1861 -0.11388,-0.3505 -0.22846,-0.7031 -0.36549,-1.1249 -0.16497,-0.5077 0.17609,0.5419 0.2392,0.7362 0.0121,0.037 -0.13525,-0.4163 -0.29149,-0.8971 -0.42656,-1.3128 -0.20627,-0.6348 -0.35255,-1.0851 -0.28245,-0.8693 0.15388,0.4736 0.49019,1.5086 0.79335,2.4417 -0.002,-0.01 0.23802,0.7325 0.2929,0.9014 0.0279,0.086 0.0608,0.1873 0.0734,0.2258 z"
       id="use1687"
       inkscape:connector-curvature="0"
       sodipodi:nodetypes="cccccscccc" />
    <path
       inkscape:transform-center-y="-4.1426774"
       inkscape:transform-center-x="13.229842"
       inkscape:tile-y0="-61.925932"
       inkscape:tile-x0="-141.3456"
       style="fill:#216778;stroke-width:0"
       d="m -125.97213,1251.2324 c 0,0 0,0 0,0 0,0 0,0 0,0 0,0 0,0 0,0 0,0 0,0 0,0 0,0 0,0 0,0 0,0 0,0 0,0 0,0 0,0 0,0 0,0 0,0 0,0 0,0 0,0 0,0 z"
       id="use1689"
       inkscape:connector-curvature="0"
       sodipodi:nodetypes="cccccscccc" />
    <path
       inkscape:transform-center-y="-4.1426774"
       inkscape:transform-center-x="13.229842"
       inkscape:tile-y0="-61.925932"
       inkscape:tile-x0="-141.3456"
       style="fill:#216778;stroke-width:0"
       d="m -464.11373,1250.1657 c 0.0467,-0.1437 -0.17344,0.5338 -0.20608,0.6343 -0.0103,0.032 -0.0678,0.2086 -0.12768,0.3929 -0.25612,0.7883 -0.40975,1.2611 -0.18495,0.5692 0.19742,-0.6075 0.26817,-0.8253 0.0135,-0.042 -0.15163,0.4667 -0.3268,1.0058 -0.47823,1.4719 -0.23124,0.7116 -0.39524,1.2164 -0.31665,0.9745 0.17252,-0.531 0.54955,-1.6913 0.88943,-2.7374 -0.002,0.01 0.26684,-0.8212 0.32838,-1.0106 0.0312,-0.096 0.0682,-0.21 0.0822,-0.2531 z"
       id="use1691"
       inkscape:connector-curvature="0"
       sodipodi:nodetypes="cccccscccc" />
    <path
       inkscape:transform-center-y="-4.1426774"
       inkscape:transform-center-x="13.229842"
       inkscape:tile-y0="-61.925932"
       inkscape:tile-x0="-141.3456"
       style="fill:#216778;stroke-width:0"
       d="m -793.43733,1139.4422 c 0.17847,-0.2457 -0.66283,0.9123 -0.7876,1.084 -0.0395,0.054 -0.25903,0.3565 -0.48795,0.6716 -0.97887,1.3473 -1.566,2.1554 -0.70684,0.9729 0.75448,-1.0385 1.0249,-1.4107 0.0517,-0.071 -0.57949,0.7976 -1.24894,1.719 -1.82768,2.5156 -0.88377,1.2164 -1.51055,2.079 -1.21018,1.6656 0.65933,-0.9075 2.10029,-2.8908 3.39922,-4.6786 -0.007,0.01 1.01985,-1.4037 1.25501,-1.7274 0.11931,-0.1642 0.26073,-0.3588 0.31433,-0.4326 z"
       id="use1693"
       inkscape:connector-curvature="0"
       sodipodi:nodetypes="cccccscccc" />
    <path
       inkscape:transform-center-y="-4.1426774"
       inkscape:transform-center-x="13.229842"
       inkscape:tile-y0="-61.925932"
       inkscape:tile-x0="-141.3456"
       style="fill:#216778;stroke-width:0"
       d="m -1077.1669,923.12078 c 0.3566,-0.25909 -1.3245,0.96229 -1.5738,1.14343 -0.079,0.0573 -0.5176,0.37605 -0.975,0.7084 -1.956,1.42112 -3.1292,2.27351 -1.4124,1.02618 1.5076,-1.09534 2.0479,-1.48793 0.1032,-0.075 -1.1579,0.84129 -2.4956,1.8132 -3.6521,2.6534 -1.7659,1.28304 -3.0184,2.19299 -2.4182,1.75693 1.3175,-0.95721 4.1969,-3.04918 6.7924,-4.93495 -0.014,0.0103 2.0379,-1.48059 2.5078,-1.822 0.2384,-0.17321 0.521,-0.37853 0.6281,-0.45634 z"
       id="use1695"
       inkscape:connector-curvature="0"
       sodipodi:nodetypes="cccccscccc" />
    <path
       inkscape:transform-center-y="-4.1426774"
       inkscape:transform-center-x="13.229842"
       inkscape:tile-y0="-61.925932"
       inkscape:tile-x0="-141.3456"
       style="fill:#216778;stroke-width:0"
       d="m -1280.1335,618.32927 c 0.5191,-0.16867 -1.928,0.62644 -2.2909,0.74436 -0.1149,0.0373 -0.7534,0.24481 -1.4193,0.46116 -2.8472,0.92513 -4.555,1.48003 -2.056,0.66804 2.1946,-0.71306 2.9812,-0.96863 0.1503,-0.0488 -1.6856,0.54768 -3.6328,1.18038 -5.3162,1.72734 -2.5706,0.83525 -4.3937,1.42762 -3.5201,1.14374 1.9178,-0.62313 6.1092,-1.98498 9.8874,-3.2126 -0.021,0.007 2.9664,-0.96385 3.6505,-1.1861 0.347,-0.11276 0.7584,-0.24642 0.9143,-0.29708 z"
       id="use1697"
       inkscape:connector-curvature="0"
       sodipodi:nodetypes="cccccscccc" />
    <g
       id="g840"
       transform="translate(40.090429,8.5526249)">
      <text
         id="text863"
         y="257.64655"
         x="-38.852638"
         style="font-style:normal;font-variant:normal;font-weight:normal;font-stretch:normal;font-size:10.33341217px;line-height:0;font-family:Arial;-inkscape-font-specification:'Arial, Normal';font-variant-ligatures:normal;font-variant-caps:normal;font-variant-numeric:normal;font-feature-settings:normal;text-align:justify;letter-spacing:0px;word-spacing:0px;writing-mode:lr-tb;text-anchor:start;fill:#000000;fill-opacity:1;stroke:none;stroke-width:0.64583826"
         xml:space="preserve"><tspan
           style="font-style:normal;font-variant:normal;font-weight:bold;font-stretch:normal;font-size:48.22259521px;font-family:'Californian FB';-inkscape-font-specification:'Californian FB, Bold';font-variant-ligatures:normal;font-variant-caps:normal;font-variant-numeric:normal;font-feature-settings:normal;text-align:justify;writing-mode:lr-tb;text-anchor:start;stroke-width:0.64583826"
           y="257.64655"
           x="-38.852638"
           id="tspan861"
           sodipodi:role="line"><tspan
   id="tspan840"
   style="font-style:normal;font-variant:normal;font-weight:bold;font-stretch:normal;font-size:48.22259521px;font-family:'Californian FB';-inkscape-font-specification:'Californian FB, Bold';font-variant-ligatures:normal;font-variant-caps:normal;font-variant-numeric:normal;font-feature-settings:normal;text-align:justify;writing-mode:lr-tb;text-anchor:start;fill:#216778;stroke-width:0.64583826">Thalass</tspan>omics</tspan></text>
      <path
         style="fill:#216778;stroke-width:0.29828188"
         d="m 81.026409,226.37446 c 0.950041,-0.75318 1.288162,-1.67887 1.277012,-3.4968 -0.02731,-4.4549 -0.471183,-6.09758 -1.628542,-6.02879 -0.539551,0.0319 -0.585293,0.26904 -0.520391,2.70019 0.07058,2.64308 0.06178,2.6763 -1.031518,4.01383 -1.246485,1.52448 -1.319344,2.01513 -0.417993,2.8154 0.757212,0.67254 1.469869,0.67144 2.321432,-0.005 z m -7.225158,-0.82502 c 0.495588,-1.84644 1.650851,-3.89893 1.738625,-5.64287 0.09983,-2.29859 -0.221153,-3.18739 -1.13105,-3.13337 -0.771292,0.0459 -0.867657,0.2997 -1.49235,3.92954 -0.249032,1.44643 -0.414255,1.70594 -1.57225,2.46944 -0.711687,0.46928 -1.384055,0.99948 -1.494164,1.17824 -0.359142,0.58282 -0.147923,1.56328 0.438396,2.03366 1.219576,1.78542 2.773472,-0.0485 3.512721,-0.83469 z m 15.220286,-0.84372 c 0.935281,-1.78859 -0.113257,-8.85571 -2.453536,-8.95389 -0.517995,0.0307 -0.712712,0.20748 -0.687963,0.62391 0.03738,0.63186 0.985223,3.687 1.268769,4.09015 0.09667,0.13694 -0.120827,0.89488 -0.482218,1.68431 -0.783403,1.711 -0.787649,2.34706 -0.0195,2.96306 0.825973,0.663 1.740333,0.50604 2.375061,-0.40754 z m -24.923633,-0.2645 c 1.787278,-1.80051 3.869004,-4.8139 4.375161,-6.89721 0.431219,-1.80929 0.20651,-2.52279 -0.7764,-2.4644 -0.725277,0.0429 -1.187034,0.69799 -2.638605,3.74243 -0.548632,1.15089 -0.854066,1.43712 -1.813492,1.70043 -2.147808,0.5894 -2.598233,0.99453 -2.617276,2.354 -0.01461,1.00372 0.113992,1.31433 0.688426,1.66778 0.84513,0.5201 1.612013,0.49164 2.782022,-0.10301 z m 31.970939,-2.36141 c 0.699385,-2.14134 -0.523022,-3.2543 -1.174633,-4.86006 0,0 -2.331855,-3.61677 -3.223635,-3.56386 -0.871666,0.0517 -0.847235,0.93653 0.06441,2.33462 0.482215,0.73956 1.076317,1.55406 1.320196,1.81009 0.369783,0.38789 0.399531,0.76734 0.179412,2.2827 -0.215057,1.47934 -0.186733,1.90019 0.152068,2.26316 0.604018,0.6456 2.340393,0.473 2.681499,-0.26651 z m 5.640777,-4.70435 c 1.13998,-0.90379 0.51812,-3.64729 -0.95564,-4.21586 -0.39726,-0.15329 -0.826094,-0.60763 -0.952733,-1.00985 -0.270505,-0.85881 -3.04073,-2.5325 -3.698156,-2.23439 -0.803952,0.3647 -0.388164,1.18894 1.355713,2.68816 1.64157,1.4111 1.736429,1.56605 1.819667,2.96745 0.07076,1.19032 0.222124,1.56125 0.777109,1.90276 0.38005,0.23165 0.76453,0.41821 0.85455,0.41436 0.0905,-0.005 0.45066,-0.23604 0.79952,-0.51268 z m -45.3288,2.14202 c 1.855157,-2.16252 4.451096,-3.61497 5.492857,-6.04986 0.457702,-1.10117 0.479892,-1.40155 0.137181,-1.76784 -0.719308,-0.76908 -1.330013,-0.43888 -3.398139,1.83731 l -2.016407,2.21916 -1.80995,0.0358 c -2.033008,0.0403 -2.556474,0.39608 -2.762295,1.87708 -0.265308,1.90934 2.226963,2.96667 4.356681,1.84829 z m 110.2125,-7.57766 c 1.04687,-0.35904 2.22813,-0.84616 2.62494,-1.08274 3.35254,-1.99909 3.84358,-6.2567 1.01168,-8.77108 -2.07099,-1.8388 -4.62436,-1.95046 -6.77546,-0.29624 -1.62375,1.24865 -3.55929,1.66991 -6.45139,1.40409 -3.70485,-0.34056 -10.0444,-2.18999 -13.27088,-3.87157 -0.42422,-0.22041 -1.66577,-0.75381 -2.75959,-1.18386 -1.09384,-0.4299 -2.19729,-0.89757 -2.4522,-1.03907 -2.0068,-1.00995 -9.77935,-2.99189 -10.11466,-1.76174 3.81173,2.02149 7.13891,3.98516 10.28595,6.71428 2.24932,1.96476 5.37971,4.24763 6.54388,4.77211 0.45039,0.20333 1.43173,0.7818 2.18068,1.28588 2.02481,1.36369 7.39595,3.50588 10.10862,4.03203 3.46615,0.67219 6.73267,0.60004 9.0675,-0.2004 z M 54.805396,209.95856 c 0.90096,-0.8246 1.6976,-1.81422 1.770259,-2.19921 0.142071,-0.75294 -0.411107,-1.55633 -1.045726,-1.51867 -0.381676,0.022 -2.622601,1.45628 -4.27162,2.73264 -0.793037,0.61383 -0.891652,0.62386 -2.402219,0.24475 -2.097403,-0.52678 -2.645736,-0.46121 -3.365507,0.40201 -0.804541,0.96511 -0.698287,2.18668 0.26431,3.04144 0.629892,0.5591 1.072634,0.66951 2.373542,0.59242 2.212566,-0.75907 5.189782,-1.94415 6.676961,-3.29538 z m 54.880194,-4.30468 c 0.18479,-0.20822 0.31828,-0.67654 0.29677,-1.04059 -0.053,-0.89219 -1.53938,-2.41154 -2.31412,-2.36556 -0.34331,0.0195 -0.95064,-0.23507 -1.34952,-0.56733 -0.50665,-0.42238 -1.23065,-0.61627 -2.40276,-0.64375 -1.49729,-0.0349 -1.66298,0.0171 -1.54172,0.49354 0.0866,0.33981 0.84907,0.77464 2.10219,1.20125 1.67682,0.56882 2.05102,0.8305 2.53619,1.77426 0.80143,1.55904 1.89203,2.02822 2.67217,1.14959 z m -63.937583,-0.88465 c 0.403296,-0.12767 1.166341,-0.50308 1.695613,-0.83397 0.529281,-0.33106 1.162712,-0.5381 1.407489,-0.4605 0.244922,0.0777 0.36473,0.0276 0.266995,-0.11204 -0.216027,-0.30776 0.485599,-0.65428 1.438362,-0.71095 0.78137,-0.0464 2.275317,-1.01628 3.834412,-2.48928 0.569544,-0.53814 1.520029,-1.31143 2.11219,-1.71856 2.330014,-1.51972 -0.596769,-1.10613 -1.542964,-0.56259 -2.474498,1.47085 -6.528185,3.10358 -7.909065,3.18557 -4.610122,1.79401 -2.712562,-1.61923 -5.657127,-0.52597 -1.314989,0.49395 -1.395351,0.58822 -1.420707,1.66671 -0.05371,2.28231 2.743171,3.52334 5.774875,2.5625 z m 65.538663,-5.02732 c 0.28195,-0.31742 0.14597,-1.56734 -0.23873,-2.19367 -0.41181,-0.67058 -2.06879,-1.45105 -2.47284,-1.16771 -0.15989,0.11229 -0.62791,0.0122 -1.03985,-0.22481 -1.03575,-0.5941 -4.00616,-0.41452 -4.21855,0.25301 -0.19943,0.62916 0.3268,0.89728 2.03135,1.03495 2.1218,0.17159 2.30969,0.25719 3.22095,1.47121 0.6581,0.87665 1.04316,1.1237 1.69144,1.08525 0.46175,-0.0276 0.92347,-0.1445 1.02614,-0.26004 z m 0.44032,-5.94863 c 0.86125,-1.17263 -0.81178,-2.87614 -2.84479,-2.89666 -0.5829,-0.005 -1.56798,-0.063 -2.18904,-0.12693 -1.67928,-0.17307 -3.1937,0.27959 -3.15436,0.94238 0.0364,0.61314 1.09849,0.85507 3.20546,0.72987 1.11737,-0.0664 1.4095,0.0559 2.18342,0.91612 0.97069,1.07859 2.18817,1.2674 2.79936,0.4352 z m 57.07183,-3.88669 c 1.67655,-0.39815 2.83907,-1.22256 3.68528,-2.61306 1.42118,-2.33534 1.27295,-4.81812 -0.42097,-7.05367 -0.82203,-1.08474 -1.48546,-1.53183 -3.61251,-2.43445 -3.42709,-1.45447 -5.45921,-1.81769 -9.90641,-1.77077 -3.69469,0.039 -6.28653,0.42712 -10.72118,1.6043 -5.23034,0.18429 -11.1326,4.99841 -15.32487,5.96784 -0.49181,0.095 -1.61844,0.43212 -2.50348,0.74881 -0.8851,0.31652 -2.79405,0.76225 -4.24213,0.99052 -3.25117,0.51248 -3.4328,0.59394 -3.37807,1.51516 8.09089,1.23544 15.73635,0.46473 20.63127,-0.32502 8.85981,-1.43109 17.15111,-0.70453 19.90979,1.74494 1.93266,1.71598 3.58294,2.17175 5.88338,1.62547 z m -122.257766,5.2175 c 0.823166,-0.17086 1.770867,-0.47957 2.105939,-0.68539 0.334874,-0.20602 0.825535,-0.38708 1.089862,-0.40281 0.264292,-0.0147 1.027037,-0.34086 1.69486,-0.72284 0.667851,-0.38199 1.839145,-0.92723 2.602825,-1.21194 0.8951,-0.33373 1.37863,-0.68581 1.360549,-0.99074 -0.02903,-0.48695 -9.07e-4,-0.48895 -4.017852,0.27034 -6.191843,1.17073 -8.806171,0.99137 -10.732381,-0.73614 -1.462285,-1.31142 -2.63963,-1.36787 -3.696769,-0.17722 -0.51687,0.58219 -0.665137,1.04437 -0.555826,1.73323 0.146207,0.92161 0.719716,1.34904 3.22407,2.40264 0.336751,0.14255 0.480265,0.2779 0.316883,0.305 -0.162809,0.0271 0.05026,0.21871 0.473479,0.42873 0.829662,0.41079 3.595296,0.31488 6.134089,-0.2131 z m 63.895646,-7.81622 c 0.46974,-0.63988 0.0515,-1.5062 -0.90589,-1.87547 -1.6227,-0.62736 -6.62438,0.66307 -6.56331,1.69188 0.0319,0.53867 0.79526,0.53428 2.64844,-0.01 1.09709,-0.32248 1.4349,-0.29851 2.34274,0.16671 1.25248,0.64201 2.01961,0.65015 2.47802,0.0256 z m -7.89117,-4.775 c 1.38002,-0.74115 2.182,-0.84338 3.73734,-0.4764 0.90839,0.21432 1.25665,0.18576 1.59561,-0.13132 1.56902,-1.46773 -1.70119,-3.16046 -3.36317,-1.74097 -0.30363,0.25947 -0.87909,0.4909 -1.27879,0.51465 -1.03294,0.0612 -2.66559,1.28859 -2.62492,1.9731 0.0413,0.69668 0.42956,0.66871 1.93395,-0.13962 z m -51.659834,3.08548 c 0.401027,-0.16574 1.569954,-0.36466 2.597653,-0.44194 1.390224,-0.10496 1.906732,-0.2611 2.017576,-0.6107 0.220909,-0.69775 -0.01461,-0.78724 -2.405132,-0.91414 -3.838485,-0.20382 -4.834885,-0.31179 -7.298134,-0.79005 -2.975683,-0.57772 -5.217615,-1.79285 -5.741616,-3.11169 -0.710072,-1.78769 -2.859758,-2.30075 -4.296922,-1.02528 -2.326676,2.06479 0.477261,5.87948 5.2026,7.07809 1.648474,0.41807 8.786783,0.28574 9.923884,-0.18405 z m 69.576014,-7.75294 c 6.77455,-2.11394 1.66477,0.0254 8.58184,-3.05536 0.34889,-0.255 0.94027,-0.48531 1.31425,-0.51169 0.37403,-0.0247 1.7188,-0.64405 2.98847,-1.37268 1.26967,-0.72862 2.41135,-1.33091 2.53704,-1.33833 0.12571,-0.007 1.3737,-0.52862 2.77322,-1.15799 7.41272,-3.33382 14.99511,-4.23615 17.72816,-2.10968 2.60937,2.0303 5.86413,1.94157 7.9944,-0.21798 1.83868,-2.42444 3.05587,-5.24976 0.52935,-8.43536 -3.59154,-3.43805 -12.52031,-3.54315 -17.13249,-2.09075 -2.61728,0.88274 -7.49229,3.2278 -9.5376,4.58778 -1.02767,0.68345 -2.48873,1.64309 -3.24682,2.13272 -0.75807,0.48961 -1.80283,1.30998 -2.32162,1.82309 -2.80858,3.09194 -14.64838,10.55365 -15.03925,11.30676 0.0298,0.49903 0.67368,0.93911 1.19451,0.81387 0.10838,-0.0244 0.84514,-0.19553 1.63745,-0.37711 z m -21.822213,0.24361 c 1.240914,-1.02882 1.526853,-1.13597 3.055723,-1.14523 1.59502,-0.01 1.69986,-0.0547 1.92738,-0.82829 0.34721,-1.1806 -0.27441,-1.71974 -1.87358,-1.62463 -0.96128,0.0571 -1.48069,0.27741 -2.047095,0.86856 -0.417476,0.43569 -0.981114,0.80531 -1.252654,0.82146 -2.777836,1.68288 -2.289134,3.93271 0.190154,1.90821 z m -41.953261,-0.47843 c -0.03221,-0.53991 -1.64646,-1.44488 -2.923962,-1.63933 -0.504152,-0.0767 -1.068579,-0.24703 -1.254042,-0.37832 -0.185517,-0.13157 -1.148622,-0.49952 -2.139842,-0.81906 -3.001094,-0.96406 -5.099858,-2.07875 -6.797113,-3.61004 -1.278455,-1.15358 -1.663951,-1.71439 -1.856109,-2.69939 -0.469269,-2.40502 -2.935258,-3.39837 -4.713573,-1.89854 -1.720561,1.45113 -1.305399,3.63118 1.197468,6.28902 1.296608,1.37685 2.085581,1.90142 4.115024,2.73598 1.380971,0.56792 3.123088,1.15085 3.871173,1.29579 0.748157,0.14475 1.80956,0.3732 2.3587,0.5075 0.549195,0.13425 1.833357,0.24902 2.853825,0.25484 1.020451,0.005 2.399199,0.11155 3.063874,0.23506 1.697428,0.31532 2.255722,0.24654 2.224749,-0.27427 z m 2.897444,-6.55726 c -0.03783,-0.63711 -2.318665,-2.58635 -2.980291,-2.54705 -0.239461,0.0147 -0.581928,-0.21456 -0.762728,-0.5052 -0.179657,-0.29275 -1.121424,-1.00969 -2.092322,-1.59388 -4.032767,-2.42549 -7.313684,-6.4399 -7.090998,-8.67665 0.233111,-2.33998 -1.098535,-3.80656 -3.335504,-3.67372 -0.956301,0.0569 -1.403697,0.27459 -2.043088,0.99481 -0.450262,0.50714 -0.813767,1.23462 -0.807616,1.61678 0.06568,4.15403 2.389046,7.3534 7.645363,10.52792 0.76095,0.46117 1.587164,0.82441 1.834681,0.8095 0.24749,-0.0147 0.542355,0.10471 0.655839,0.26453 0.334193,0.4755 3.15133,1.59995 3.89692,1.55574 0.378501,-0.022 1.033097,0.1716 1.454936,0.43154 1.102808,0.6792 2.827053,1.40575 3.27434,1.37919 0.211137,-0.0122 0.368658,-0.27529 0.350985,-0.58331 z m 59.97666,-4.66529 c 2.52176,-3.41828 6.47715,-4.82676 9.13042,-8.21385 0.35656,-0.47319 0.84395,-0.87178 1.08274,-0.88599 0.47756,-0.0286 4.60034,-2.51499 5.33466,-3.21753 0.61803,-0.59135 4.92774,-1.8741 6.63751,-1.97564 0.86347,-0.0513 1.58651,0.0908 1.95065,0.38291 0.33114,0.26589 1.27301,0.47992 2.2015,0.5023 4.222,0.0991 6.97448,-4.0251 5.24417,-7.85719 -0.74791,-1.65631 -2.30867,-2.86259 -4.30764,-3.32918 -1.89563,-0.44257 -6.41856,0.01 -8.7069,0.87293 -2.05658,0.77479 -5.36006,2.72566 -5.5317,3.26684 -0.0791,0.24971 -0.81221,0.82344 -1.62901,1.27487 -1.78149,0.98473 -4.96519,4.11846 -5.3798,5.2954 -0.16355,0.46384 -0.73339,1.1773 -1.26675,1.58529 -1.86894,2.27238 -9.04784,12.14654 -9.11589,12.64922 0.0993,1.67135 1.72229,1.54083 4.35599,-0.35011 z m -55.974181,-1.75862 c 0.213342,-0.67258 -0.869203,-2.39155 -1.948795,-3.09477 -0.474032,-0.3061 -0.869471,-0.72868 -0.8818,-0.93494 -0.01216,-0.20627 -0.71117,-1.1144 -1.553189,-2.01792 -2.092558,-2.24547 -4.157228,-5.63736 -4.732805,-7.77511 -0.418428,-1.55489 -0.423998,-1.9391 -0.04273,-3.08449 0.548333,-1.64763 0.254004,-2.75742 -0.973928,-3.67207 -2.16481,-1.61233 -5.018498,-0.0728 -5.272674,2.84495 -0.12595,1.44475 0.577944,4.46059 1.444467,6.18918 0.765068,1.52629 4.329972,5.59098 5.10208,5.81731 0.278118,0.081 0.886046,0.59132 1.352339,1.13197 0.465903,0.54111 1.036581,0.97255 1.268031,0.95893 0.231405,-0.0146 0.580168,0.23506 0.774639,0.55227 0.19479,0.31686 0.538091,0.56559 0.762338,0.5531 0.224573,-0.0122 1.060214,0.53779 1.856381,1.22475 1.916784,1.65363 2.63087,1.98208 2.844412,1.30864 z m 46.955261,-5.14865 c 1.50434,-3.73455 4.90419,-5.91255 6.41753,-9.72118 0.17087,-0.46364 0.50844,-0.97652 0.74865,-1.14054 0.24019,-0.16379 1.51064,-1.46165 2.82307,-2.88368 1.31249,-1.42206 3.03424,-2.99614 3.82618,-3.4981 2.10131,-1.33174 4.2456,-2.16614 4.96498,-1.93198 2.31598,0.75399 5.36014,-0.81291 6.25902,-3.22178 0.41831,-1.12074 0.44423,-1.62968 0.15182,-2.96963 -2.53222,-7.25622 -12.57618,-2.28383 -13.44157,-1.65121 -1.58785,1.06177 -4.68646,4.25502 -4.65429,4.79645 0.0123,0.21992 -0.42959,0.78933 -0.98295,1.26627 -1.19941,1.03285 -3.60638,5.10281 -3.80488,6.43368 -0.0771,0.51833 -0.43212,1.29583 -0.78853,1.72785 -0.5443,1.52541 -5.28858,13.3634 -5.22563,14.00759 0.11252,0.63834 0.313,0.79325 1.06345,0.82149 0.80137,0.0305 1.15375,-0.24068 2.64308,-2.0354 z m -39.774603,0.23385 c 0.1982,-0.62394 -0.87799,-3.47045 -1.478443,-3.91138 -0.249612,-0.18453 -0.571793,-0.81796 -0.714472,-1.40926 -0.142796,-0.59136 -0.7452,-1.98751 -1.339012,-3.1026 -2.539065,-4.76875 -3.317469,-10.42984 -1.72742,-12.56317 1.396303,-1.87331 0.660837,-4.60561 -1.471421,-5.46653 -1.269622,-0.51315 -2.657406,-0.3229 -3.788692,0.51831 -1.727492,1.28441 -2.555059,6.13013 -1.597833,9.35582 2.052677,6.60039 5.591303,9.46657 8.781834,14.02592 0.04854,0.63852 2.235799,3.09876 2.72705,3.06961 0.249386,-0.0146 0.522976,-0.24732 0.608409,-0.51672 z m 29.582383,-2.99545 c 1.01537,-4.0089 3.57596,-7.74023 4.168,-11.84847 0.0703,-0.555 0.30589,-1.17547 0.52385,-1.37873 0.21749,-0.20358 0.9974,-1.57239 1.73384,-3.04181 2.04399,-4.08319 4.89206,-6.88679 7.1311,-7.01977 2.5689,-0.15256 4.43553,-2.64581 4.01143,-5.35803 -0.27167,-1.73712 -1.54938,-3.3295 -3.10937,-3.87519 -1.95628,-0.68429 -5.0504,0.17698 -6.6888,1.86109 -0.32997,0.33891 -1.03694,0.88503 -1.57139,1.21317 -1.23787,0.76004 -3.7854,4.51114 -4.13922,6.09481 -0.14865,0.66629 -0.49861,1.50166 -0.77747,1.8565 -0.69346,0.88263 -1.753761,4.86328 -1.670161,6.27011 0.03756,0.63216 -0.104711,1.45742 -0.315931,1.83399 -0.376324,2.95466 -1.719654,12.3658 -1.361764,13.56312 0.280585,0.61854 1.51572,0.51692 2.067006,-0.17014 z m -10.204669,-1.52475 c 0.08056,-0.15061 0.298747,-1.16471 0.48431,-2.25445 -0.673266,-3.14645 0.445772,-5.7494 0.467545,-8.34803 0.0073,-1.36823 0.109837,-2.62772 0.226279,-2.799 0.117649,-0.17087 0.47513,-1.56308 0.796993,-3.09282 0.687283,-3.26684 2.568704,-6.93148 3.863117,-7.5243 2.598506,-1.19022 3.518509,-2.44526 3.387497,-4.62128 -0.143286,-2.38043 -1.743995,-4.00851 -4.113654,-4.18423 -1.452324,-0.10789 -4.1316,1.26532 -4.87895,2.50033 -0.259891,0.42917 -0.877037,1.31068 -1.371409,1.95868 -1.241884,1.62761 -2.227238,4.31677 -2.390166,6.5242 -0.07539,1.01996 -0.252253,2.33115 -0.393044,2.91359 -0.04246,6.96534 -0.438668,3.52453 0.532275,9.74715 0.210657,1.3059 0.5088,2.55235 0.662964,2.76982 0.154028,0.21773 0.38331,1.6943 0.509332,3.28187 0.125958,1.58758 0.323823,3.02126 0.439838,3.18602 0.256299,0.36453 1.571814,0.32182 1.776292,-0.0573 z m -10.148189,0.66777 c 0.309761,-0.34874 0.0098,-3.58719 -0.411887,-4.46313 -0.216998,-0.4497 -0.486506,-1.78403 -0.598838,-2.96497 -0.112042,-1.18101 -0.370473,-2.57758 -0.573754,-3.10342 -2.631819,-10.38444 1.324125,-11.48038 2.981054,-14.5176 0.601033,-1.13185 0.625664,-2.21007 0.07784,-3.43148 -1.281095,-2.8573 -4.88227,-3.2209 -7.105331,-0.71708 -1.349536,2.55408 -3.134565,7.78247 -2.595277,10.39348 0.171601,0.76711 0.303629,1.74357 0.293695,2.16998 1.594775,6.04544 3.614039,9.97181 5.676922,15.11562 0.606314,1.49624 0.84729,1.80055 1.399823,1.76775 0.367098,-0.022 0.751451,-0.13425 0.854139,-0.24986 z"
         id="path2276"
         inkscape:connector-curvature="0"
         sodipodi:nodetypes="ccsccsccccscccccccscccccccscccccccccccccccccccscscccccccccccccccccccccccccccccccscccccscccccccccccsscccccscccsccscscccccccccccccccccccsccccccccccccccccccscscccccsccccccccccccsccscccccccscccccsccccccccccccccccccccsccsccccccssscscsscscccccccccsccscccsccccccccccsscccccccccccsscccccscsccccccccccscccccccccccccccccccccccccsccccccccccccccccccccccccccc" />
    </g>
    <g
       id="g934"
       transform="matrix(2.3001271,-2.3764667,2.3764667,2.3001271,-120.95666,402.2231)" />
  </g>
  <style
     id="style894"
     type="text/css">
	.st0{fill:#B4E6DD;}
	.st1{fill:#80D4C4;}
	.st2{fill:#D2F0EA;}
	.st3{fill:#FFFFFF;}
	.st4{fill:#FBD872;}
	.st5{fill:#DB7767;}
	.st6{fill:#F38E7A;}
	.st7{fill:#F6AF62;}
	.st8{fill:#32A48E;}
	.st9{fill:#A38FD8;}
	.st10{fill:#7C64BD;}
	.st11{fill:#EAA157;}
	.st12{fill:#9681CF;}
	.st13{fill:#F9C46A;}
	.st14{fill:#CE6B61;}
</style>
</svg>
